<?xml version="1.0" encoding="us-ascii" standalone="no"?>
<svg xmlns="http://www.w3.org/2000/svg" xmlns:xlink="http://www.w3.org/1999/xlink"
    contentStyleType="text/css" height="470px" preserveAspectRatio="none"
    style="width:754px;height:470px;background:#FFFFFF;" version="1.1" viewBox="0 0 754 470"
    width="754px" zoomAndPan="magnify">
    <defs />
    <g><!--class
        Kunde-->
        <g id="elem_Kunde">
            <rect codeLine="3" fill="#F1F1F1" height="48" id="Kunde" rx="2.5" ry="2.5"
                style="stroke:#181818;stroke-width:0.5;" width="77" x="516" y="329.5" />
            <ellipse cx="531" cy="345.5" fill="#B4A7E5" rx="11" ry="11"
                style="stroke:#181818;stroke-width:1.0;" />
           <path
                d="M531.9531,342.2813 L533.6719,342.2813 C534.0625,342.2813 534.25,342.25 534.375,342.1719 C534.6406,342.0156 534.7813,341.7344 534.7813,341.4375 C534.7813,341.1719 534.6719,340.9063 534.4375,340.7344 C534.2656,340.625 534.125,340.5938 533.6719,340.5938 L528.5313,340.5938 C528.0938,340.5938 527.9688,340.6094 527.8125,340.7031 C527.5625,340.8594 527.4063,341.1563 527.4063,341.4375 C527.4063,341.7188 527.5469,341.9688 527.7656,342.1406 C527.9219,342.25 528.1094,342.2813 528.5313,342.2813 L530.25,342.2813 L530.25,348.7969 L528.5313,348.7969 C528.0938,348.7969 527.9688,348.8125 527.8125,348.9219 C527.5625,349.0781 527.4063,349.3594 527.4063,349.6563 C527.4063,349.9063 527.5469,350.1719 527.7656,350.3281 C527.9219,350.4531 528.125,350.5 528.5313,350.5 L533.6719,350.5 C534.4219,350.5 534.7813,350.2188 534.7813,349.6563 C534.7813,349.375 534.6719,349.125 534.4375,348.9531 C534.2656,348.8281 534.125,348.7969 533.6719,348.7969 L531.9531,348.7969 L531.9531,342.2813 Z "
                fill="#000000" />
            <text fill="#000000" font-family="sans-serif" font-size="14" font-style="italic"
                lengthAdjust="spacing" textLength="45" x="545" y="350.3467">Kunde</text>
            <line style="stroke:#181818;stroke-width:0.5;" x1="517" x2="592" y1="361.5" y2="361.5" />
            <line style="stroke:#181818;stroke-width:0.5;" x1="517" x2="592" y1="369.5" y2="369.5" />
        </g><!--class
        Privatkunde-->
        <g id="elem_Privatkunde">
            <rect codeLine="4" fill="#F1F1F1" height="80.5938" id="Privatkunde" rx="2.5" ry="2.5"
                style="stroke:#181818;stroke-width:0.5;" width="118" x="95.5" y="246" />
            <ellipse cx="110.5" cy="262" fill="#ADD1B2" rx="11" ry="11"
                style="stroke:#181818;stroke-width:1.0;" />
            <path
                d="M112.8438,257.6719 C111.9063,257.2344 111.3125,257.0938 110.4375,257.0938 C107.8125,257.0938 105.8125,259.1719 105.8125,261.8906 L105.8125,263.0156 C105.8125,265.5938 107.9219,267.4844 110.8125,267.4844 C112.0313,267.4844 113.1875,267.1875 113.9375,266.6406 C114.5156,266.2344 114.8438,265.7813 114.8438,265.3906 C114.8438,264.9375 114.4531,264.5469 113.9844,264.5469 C113.7656,264.5469 113.5625,264.625 113.375,264.8125 C112.9219,265.2969 112.9219,265.2969 112.7344,265.3906 C112.3125,265.6563 111.625,265.7813 110.8594,265.7813 C108.8125,265.7813 107.5156,264.6875 107.5156,262.9844 L107.5156,261.8906 C107.5156,260.1094 108.7656,258.7969 110.5,258.7969 C111.0781,258.7969 111.6875,258.9531 112.1563,259.2031 C112.6406,259.4844 112.8125,259.7031 112.9063,260.1094 C112.9688,260.5156 113,260.6406 113.1406,260.7656 C113.2813,260.9063 113.5156,261.0156 113.7344,261.0156 C114,261.0156 114.2656,260.875 114.4375,260.6563 C114.5469,260.5 114.5781,260.3125 114.5781,259.8906 L114.5781,258.4688 C114.5781,258.0313 114.5625,257.9063 114.4688,257.75 C114.3125,257.4844 114.0313,257.3438 113.7344,257.3438 C113.4375,257.3438 113.2344,257.4375 113.0156,257.75 L112.8438,257.6719 Z "
                fill="#000000" />
            <text fill="#000000" font-family="sans-serif" font-size="14" lengthAdjust="spacing"
                textLength="86" x="124.5" y="266.8467">Privatkunde</text>
            <line style="stroke:#181818;stroke-width:0.5;" x1="96.5" x2="212.5" y1="278" y2="278" />
            <text fill="#000000" font-family="sans-serif" font-size="14" lengthAdjust="spacing"
                textLength="95" x="101.5" y="294.9951">name : string</text>
            <text fill="#000000" font-family="sans-serif" font-size="14" lengthAdjust="spacing"
                textLength="94" x="101.5" y="311.292">email : string</text>
            <line style="stroke:#181818;stroke-width:0.5;" x1="96.5" x2="212.5" y1="318.5938"
                y2="318.5938" />
        </g><!--class
        Businesskunde-->
        <g id="elem_Businesskunde">
            <rect codeLine="8" fill="#F1F1F1" height="96.8906" id="Businesskunde" rx="2.5" ry="2.5"
                style="stroke:#181818;stroke-width:0.5;" width="295" x="7" y="367" />
            <ellipse cx="97.75" cy="383" fill="#ADD1B2" rx="11" ry="11"
                style="stroke:#181818;stroke-width:1.0;" />
            <path
                d="M100.0938,378.6719 C99.1563,378.2344 98.5625,378.0938 97.6875,378.0938 C95.0625,378.0938 93.0625,380.1719 93.0625,382.8906 L93.0625,384.0156 C93.0625,386.5938 95.1719,388.4844 98.0625,388.4844 C99.2813,388.4844 100.4375,388.1875 101.1875,387.6406 C101.7656,387.2344 102.0938,386.7813 102.0938,386.3906 C102.0938,385.9375 101.7031,385.5469 101.2344,385.5469 C101.0156,385.5469 100.8125,385.625 100.625,385.8125 C100.1719,386.2969 100.1719,386.2969 99.9844,386.3906 C99.5625,386.6563 98.875,386.7813 98.1094,386.7813 C96.0625,386.7813 94.7656,385.6875 94.7656,383.9844 L94.7656,382.8906 C94.7656,381.1094 96.0156,379.7969 97.75,379.7969 C98.3281,379.7969 98.9375,379.9531 99.4063,380.2031 C99.8906,380.4844 100.0625,380.7031 100.1563,381.1094 C100.2188,381.5156 100.25,381.6406 100.3906,381.7656 C100.5313,381.9063 100.7656,382.0156 100.9844,382.0156 C101.25,382.0156 101.5156,381.875 101.6875,381.6563 C101.7969,381.5 101.8281,381.3125 101.8281,380.8906 L101.8281,379.4688 C101.8281,379.0313 101.8125,378.9063 101.7188,378.75 C101.5625,378.4844 101.2813,378.3438 100.9844,378.3438 C100.6875,378.3438 100.4844,378.4375 100.2656,378.75 L100.0938,378.6719 Z "
                fill="#000000" />
            <text fill="#000000" font-family="sans-serif" font-size="14" lengthAdjust="spacing"
                textLength="105" x="118.25" y="387.8467">Businesskunde</text>
            <line style="stroke:#181818;stroke-width:0.5;" x1="8" x2="301" y1="399" y2="399" />
            <text fill="#000000" font-family="sans-serif" font-size="14" lengthAdjust="spacing"
                textLength="95" x="13" y="415.9951">name : string</text>
            <text fill="#000000" font-family="sans-serif" font-size="14" lengthAdjust="spacing"
                textLength="94" x="13" y="432.292">email : string</text>
            <text fill="#000000" font-family="sans-serif" font-size="14" lengthAdjust="spacing"
                textLength="283" x="13" y="448.5889">isVorsteuerAbzugsberechtigt : boolean</text>
            <line style="stroke:#181818;stroke-width:0.5;" x1="8" x2="301" y1="455.8906"
                y2="455.8906" />
        </g><!--class
        Rechnung-->
        <g id="elem_Rechnung">
            <rect codeLine="14" fill="#F1F1F1" height="48" id="Rechnung" rx="2.5" ry="2.5"
                style="stroke:#181818;stroke-width:0.5;" width="104" x="502.5" y="81.5" />
            <ellipse cx="517.5" cy="97.5" fill="#B4A7E5" rx="11" ry="11"
                style="stroke:#181818;stroke-width:1.0;" />
            <path
                d="M518.4531,94.2813 L520.1719,94.2813 C520.5625,94.2813 520.75,94.25 520.875,94.1719 C521.1406,94.0156 521.2813,93.7344 521.2813,93.4375 C521.2813,93.1719 521.1719,92.9063 520.9375,92.7344 C520.7656,92.625 520.625,92.5938 520.1719,92.5938 L515.0313,92.5938 C514.5938,92.5938 514.4688,92.6094 514.3125,92.7031 C514.0625,92.8594 513.9063,93.1563 513.9063,93.4375 C513.9063,93.7188 514.0469,93.9688 514.2656,94.1406 C514.4219,94.25 514.6094,94.2813 515.0313,94.2813 L516.75,94.2813 L516.75,100.7969 L515.0313,100.7969 C514.5938,100.7969 514.4688,100.8125 514.3125,100.9219 C514.0625,101.0781 513.9063,101.3594 513.9063,101.6563 C513.9063,101.9063 514.0469,102.1719 514.2656,102.3281 C514.4219,102.4531 514.625,102.5 515.0313,102.5 L520.1719,102.5 C520.9219,102.5 521.2813,102.2188 521.2813,101.6563 C521.2813,101.375 521.1719,101.125 520.9375,100.9531 C520.7656,100.8281 520.625,100.7969 520.1719,100.7969 L518.4531,100.7969 L518.4531,94.2813 Z "
                fill="#000000" />
            <text fill="#000000" font-family="sans-serif" font-size="14" font-style="italic"
                lengthAdjust="spacing" textLength="72" x="531.5" y="102.3467">Rechnung</text>
            <line style="stroke:#181818;stroke-width:0.5;" x1="503.5" x2="605.5" y1="113.5"
                y2="113.5" />
            <line style="stroke:#181818;stroke-width:0.5;" x1="503.5" x2="605.5" y1="121.5"
                y2="121.5" />
        </g><!--class
        InterneVerechnung-->
        <g id="elem_InterneVerechnung">
            <rect codeLine="15" fill="#F1F1F1" height="80.5938" id="InterneVerechnung" rx="2.5"
                ry="2.5" style="stroke:#181818;stroke-width:0.5;" width="171" x="69" y="7" />
            <ellipse cx="84" cy="23" fill="#ADD1B2" rx="11" ry="11"
                style="stroke:#181818;stroke-width:1.0;" />
            <path
                d="M86.3438,18.6719 C85.4063,18.2344 84.8125,18.0938 83.9375,18.0938 C81.3125,18.0938 79.3125,20.1719 79.3125,22.8906 L79.3125,24.0156 C79.3125,26.5938 81.4219,28.4844 84.3125,28.4844 C85.5313,28.4844 86.6875,28.1875 87.4375,27.6406 C88.0156,27.2344 88.3438,26.7813 88.3438,26.3906 C88.3438,25.9375 87.9531,25.5469 87.4844,25.5469 C87.2656,25.5469 87.0625,25.625 86.875,25.8125 C86.4219,26.2969 86.4219,26.2969 86.2344,26.3906 C85.8125,26.6563 85.125,26.7813 84.3594,26.7813 C82.3125,26.7813 81.0156,25.6875 81.0156,23.9844 L81.0156,22.8906 C81.0156,21.1094 82.2656,19.7969 84,19.7969 C84.5781,19.7969 85.1875,19.9531 85.6563,20.2031 C86.1406,20.4844 86.3125,20.7031 86.4063,21.1094 C86.4688,21.5156 86.5,21.6406 86.6406,21.7656 C86.7813,21.9063 87.0156,22.0156 87.2344,22.0156 C87.5,22.0156 87.7656,21.875 87.9375,21.6563 C88.0469,21.5 88.0781,21.3125 88.0781,20.8906 L88.0781,19.4688 C88.0781,19.0313 88.0625,18.9063 87.9688,18.75 C87.8125,18.4844 87.5313,18.3438 87.2344,18.3438 C86.9375,18.3438 86.7344,18.4375 86.5156,18.75 L86.3438,18.6719 Z "
                fill="#000000" />
            <text fill="#000000" font-family="sans-serif" font-size="14" lengthAdjust="spacing"
                textLength="139" x="98" y="27.8467">InterneVerechnung</text>
            <line style="stroke:#181818;stroke-width:0.5;" x1="70" x2="239" y1="39" y2="39" />
            <text fill="#000000" font-family="sans-serif" font-size="14" lengthAdjust="spacing"
                textLength="123" x="75" y="55.9951">abteilung : string</text>
            <text fill="#000000" font-family="sans-serif" font-size="14" lengthAdjust="spacing"
                textLength="95" x="75" y="72.292">wert : double</text>
            <line style="stroke:#181818;stroke-width:0.5;" x1="70" x2="239" y1="79.5938"
                y2="79.5938" />
        </g><!--class
        ExternVersandt-->
        <g id="elem_ExternVersandt">
            <rect codeLine="19" fill="#F1F1F1" height="80.5938" id="ExternVersandt" rx="2.5"
                ry="2.5" style="stroke:#181818;stroke-width:0.5;" width="145" x="82" y="130" />
            <ellipse cx="97" cy="146" fill="#ADD1B2" rx="11" ry="11"
                style="stroke:#181818;stroke-width:1.0;" />
            <path
                d="M99.3438,141.6719 C98.4063,141.2344 97.8125,141.0938 96.9375,141.0938 C94.3125,141.0938 92.3125,143.1719 92.3125,145.8906 L92.3125,147.0156 C92.3125,149.5938 94.4219,151.4844 97.3125,151.4844 C98.5313,151.4844 99.6875,151.1875 100.4375,150.6406 C101.0156,150.2344 101.3438,149.7813 101.3438,149.3906 C101.3438,148.9375 100.9531,148.5469 100.4844,148.5469 C100.2656,148.5469 100.0625,148.625 99.875,148.8125 C99.4219,149.2969 99.4219,149.2969 99.2344,149.3906 C98.8125,149.6563 98.125,149.7813 97.3594,149.7813 C95.3125,149.7813 94.0156,148.6875 94.0156,146.9844 L94.0156,145.8906 C94.0156,144.1094 95.2656,142.7969 97,142.7969 C97.5781,142.7969 98.1875,142.9531 98.6563,143.2031 C99.1406,143.4844 99.3125,143.7031 99.4063,144.1094 C99.4688,144.5156 99.5,144.6406 99.6406,144.7656 C99.7813,144.9063 100.0156,145.0156 100.2344,145.0156 C100.5,145.0156 100.7656,144.875 100.9375,144.6563 C101.0469,144.5 101.0781,144.3125 101.0781,143.8906 L101.0781,142.4688 C101.0781,142.0313 101.0625,141.9063 100.9688,141.75 C100.8125,141.4844 100.5313,141.3438 100.2344,141.3438 C99.9375,141.3438 99.7344,141.4375 99.5156,141.75 L99.3438,141.6719 Z "
                fill="#000000" />
            <text fill="#000000" font-family="sans-serif" font-size="14" lengthAdjust="spacing"
                textLength="113" x="111" y="150.8467">ExternVersandt</text>
            <line style="stroke:#181818;stroke-width:0.5;" x1="83" x2="226" y1="162" y2="162" />
            <text fill="#000000" font-family="sans-serif" font-size="14" lengthAdjust="spacing"
                textLength="102" x="88" y="178.9951">kunde : Kunde</text>
            <text fill="#000000" font-family="sans-serif" font-size="14" lengthAdjust="spacing"
                textLength="95" x="88" y="195.292">wert : double</text>
            <line style="stroke:#181818;stroke-width:0.5;" x1="83" x2="226" y1="202.5938"
                y2="202.5938" />
        </g>
        <g id="elem_NP">
            <path
                d="M458,269 L458,278.704 L213.799,285.768 L458,286.704 L458,294.1328 A0,0 0 0 0 458,294.1328 L651,294.1328 A0,0 0 0 0 651,294.1328 L651,279 L641,269 L458,269 A0,0 0 0 0 458,269 "
                fill="#FEFFDD" style="stroke:#181818;stroke-width:0.5;" />
            <path d="M641,269 L641,279 L651,279 L641,269 " fill="#FEFFDD"
                style="stroke:#181818;stroke-width:0.5;" />
            <text fill="#000000" font-family="sans-serif" font-size="13" lengthAdjust="spacing"
                textLength="172" x="464" y="286.0669">MwSt 10% ist anzuwenden</text>
        </g>
        <g id="elem_NB">
            <path
                d="M362,413 L362,416.6851 L302.005,419.181 L362,424.6851 L362,438.1328 A0,0 0 0 0 362,438.1328 L747,438.1328 A0,0 0 0 0 747,438.1328 L747,423 L737,413 L362,413 A0,0 0 0 0 362,413 "
                fill="#FEFFDD" style="stroke:#181818;stroke-width:0.5;" />
            <path d="M737,413 L737,423 L747,423 L737,413 " fill="#FEFFDD"
                style="stroke:#181818;stroke-width:0.5;" />
            <text fill="#000000" font-family="sans-serif" font-size="13" lengthAdjust="spacing"
                textLength="364" x="368" y="430.0669">Vorsteuerabzugsberechtigung hei&#223;t 0% MwSt
                sonst 10%</text>
        </g>
        <g id="elem_NI">
            <path
                d="M414,21 L414,34.409 L240.393,44.514 L414,42.409 L414,46.1328 A0,0 0 0 0 414,46.1328 L695,46.1328 A0,0 0 0 0 695,46.1328 L695,31 L685,21 L414,21 A0,0 0 0 0 414,21 "
                fill="#FEFFDD" style="stroke:#181818;stroke-width:0.5;" />
            <path d="M685,21 L685,31 L695,31 L685,21 " fill="#FEFFDD"
                style="stroke:#181818;stroke-width:0.5;" />
            <text fill="#000000" font-family="sans-serif" font-size="13" lengthAdjust="spacing"
                textLength="260" x="420" y="38.0669">In der Buchf&#252;rhung Datenbank hinterlegt</text>
        </g>
        <g id="elem_NE">
            <path
                d="M410,165 L410,170.975 L227.114,171.76 L410,178.975 L410,190.1328 A0,0 0 0 0 410,190.1328 L699,190.1328 A0,0 0 0 0 699,190.1328 L699,175 L689,165 L410,165 A0,0 0 0 0 410,165 "
                fill="#FEFFDD" style="stroke:#181818;stroke-width:0.5;" />
            <path d="M689,165 L689,175 L699,175 L689,165 " fill="#FEFFDD"
                style="stroke:#181818;stroke-width:0.5;" />
            <text fill="#000000" font-family="sans-serif" font-size="13" lengthAdjust="spacing"
                textLength="268" x="416" y="182.0669">An externen Empf&#228;nger versandt per Mail</text>
        </g><!--link
        Privatkunde to Kunde-->
        <g id="link_Privatkunde_Kunde">
            <path codeLine="34"
                d="M213.799,296.314 C296.71,310.272 428.5858,332.4719 498.2178,344.1939 "
                fill="none" id="Privatkunde-to-Kunde" style="stroke:#181818;stroke-width:1.0;" />
            <polygon fill="none"
                points="515.968,347.182,499.2138,338.2771,497.2217,350.1106,515.968,347.182"
                style="stroke:#181818;stroke-width:1.0;" />
        </g><!--link
        Businesskunde to Kunde-->
        <g id="link_Businesskunde_Kunde">
            <path codeLine="35"
                d="M302.005,392.6776 C378.916,380.6965 449.3085,369.7308 498.1545,362.1216 "
                fill="none" id="Businesskunde-to-Kunde" style="stroke:#181818;stroke-width:1.0;" />
            <polygon fill="none"
                points="515.94,359.351,497.231,356.1931,499.078,368.0501,515.94,359.351"
                style="stroke:#181818;stroke-width:1.0;" />
        </g><!--link
        InterneVerechnung to Rechnung-->
        <g id="link_InterneVerechnung_Rechnung">
            <path codeLine="37"
                d="M240.393,59.871 C319.954,71.466 418.4582,85.8202 484.6332,95.4642 " fill="none"
                id="InterneVerechnung-to-Rechnung" style="stroke:#181818;stroke-width:1.0;" />
            <polygon fill="none"
                points="502.445,98.06,485.4984,89.5269,483.7679,101.4015,502.445,98.06"
                style="stroke:#181818;stroke-width:1.0;" />
        </g><!--link
        ExternVersandt to Rechnung-->
        <g id="link_ExternVersandt_Rechnung">
            <path codeLine="38"
                d="M227.114,158.804 C306.452,145.847 414.6283,128.1802 484.6033,116.7522 "
                fill="none" id="ExternVersandt-to-Rechnung" style="stroke:#181818;stroke-width:1.0;" />
            <polygon fill="none"
                points="502.368,113.851,483.6363,110.8307,485.5704,122.6738,502.368,113.851"
                style="stroke:#181818;stroke-width:1.0;" />
        </g><!--SRC=[ZL6nJiCm4Dtz5ISanbQmTa1gHOS85LKWTNUIIsBLFLVskKK5leM5ps3hZs4xeIGj0-Ezk_VktZkD5GCRiAfk64fbiM1bI0X5ZBQI1SA3fn95eQLpiBHg9taT4NWL02Gt21DmR1NLeSQDLFeNUEzeC-yKeNF_9W8ejpBMCNgqq_pWQvTZkArXLNCOoutHA0d2XjwbJs60VA2tMxFO85mbOiJJPfapAXshthOzsYXR6fzhF9qzVua2WUyabPpOhOD95yebKP1XXAl5_fdXzkOws62GTF1x3FDq1TB1ux8REXcKGuFnjWRLyOCXA2GfPyWbmLPXrYba12NQ46_HLCSlsqJclMIaND8QcfICnffRLjQnfWIOd271VBEjZfzK1vNTZyzjA1RX7IrhBaJ_w-DnD31yQCHcuZBkY6VYBCK8dccEHcztNQ93uLxZ3_dKFVtyRCsW-Gq0]-->
    </g>
</svg>