<?xml version="1.0" encoding="UTF-8" standalone="no"?>
<!-- Created with Inkscape (http://www.inkscape.org/) -->

<svg
   xmlns:dc="http://purl.org/dc/elements/1.1/"
   xmlns:cc="http://creativecommons.org/ns#"
   xmlns:rdf="http://www.w3.org/1999/02/22-rdf-syntax-ns#"
   xmlns:svg="http://www.w3.org/2000/svg"
   xmlns="http://www.w3.org/2000/svg"
   xmlns:xlink="http://www.w3.org/1999/xlink"
   xmlns:sodipodi="http://sodipodi.sourceforge.net/DTD/sodipodi-0.dtd"
   xmlns:inkscape="http://www.inkscape.org/namespaces/inkscape"
   width="288.57751mm"
   height="333.32916mm"
   viewBox="0 0 1022.5187 1181.0876"
   id="svg2"
   version="1.1"
   inkscape:version="0.91 r13725"
   sodipodi:docname="logo-jug-duke.svg">
  <defs
     id="defs4">
    <linearGradient
       inkscape:collect="always"
       id="linearGradient4157">
      <stop
         style="stop-color:#fd8e8d;stop-opacity:1"
         offset="0"
         id="stop4159" />
      <stop
         style="stop-color:#fd484d;stop-opacity:1"
         offset="1"
         id="stop4161" />
    </linearGradient>
    <radialGradient
       inkscape:collect="always"
       xlink:href="#linearGradient4157"
       id="radialGradient4163"
       cx="-727.25372"
       cy="641.03125"
       fx="-727.25372"
       fy="641.03125"
       r="33.299877"
       gradientTransform="matrix(2.5898312,-0.77078014,0.53819941,1.8083569,-152.8927,-1260.913)"
       gradientUnits="userSpaceOnUse" />
  </defs>
  <sodipodi:namedview
     id="base"
     pagecolor="#ffffff"
     bordercolor="#666666"
     borderopacity="1.0"
     inkscape:pageopacity="0.0"
     inkscape:pageshadow="2"
     inkscape:zoom="0.35355339"
     inkscape:cx="977.18489"
     inkscape:cy="637.63378"
     inkscape:document-units="px"
     inkscape:current-layer="layer1"
     showgrid="false"
     inkscape:window-width="1920"
     inkscape:window-height="1137"
     inkscape:window-x="1272"
     inkscape:window-y="-8"
     inkscape:window-maximized="1"
     fit-margin-top="0"
     fit-margin-left="0"
     fit-margin-right="0"
     fit-margin-bottom="0" />
  <metadata
     id="metadata7">
    <rdf:RDF>
      <cc:Work
         rdf:about="">
        <dc:format>image/svg+xml</dc:format>
        <dc:type
           rdf:resource="http://purl.org/dc/dcmitype/StillImage" />
        <dc:title></dc:title>
      </cc:Work>
    </rdf:RDF>
  </metadata>
  <g
     inkscape:label="Ebene 1"
     inkscape:groupmode="layer"
     id="layer1"
     transform="translate(2019.5586,54.817208)">
    <path
       inkscape:connector-curvature="0"
       style="fill:#ffffff;fill-opacity:1;fill-rule:nonzero;stroke:none;stroke-width:0.05;stroke-linecap:square;stroke-linejoin:miter;stroke-miterlimit:4;stroke-dasharray:none;stroke-dashoffset:0;stroke-opacity:1"
       d="m -1846.4126,-22.21665 c -0.2171,0.0693 -0.4829,0.36835 -0.8614,0.69195 -1.8313,1.56522 -9.9275,11.53669 -16.6634,20.52459 -31.9954,42.69295 -68.4568,107.23738 -74.8159,132.44288 -1.2434,4.92797 -1.2693,5.51381 -0.4309,9.09491 1.7307,7.39227 7.0982,17.40571 17.772,33.14556 6.2413,9.204 14.6258,20.61416 17.3203,23.5749 1.0462,1.14963 2.2195,2.01742 2.6072,1.92698 0.3876,-0.0904 3.2214,-2.35224 6.2982,-5.02401 29.956,-26.01227 68.5864,-60.54525 69.2769,-61.92914 0.8501,-1.70417 -10.6883,-92.32519 -18.2562,-143.38306 -1.3964,-9.4202 -1.5957,-11.2733 -2.2468,-11.06556 z m 64.1823,-15.02658 c -0.2751,0.0914 -0.2021,0.50856 0.04,1.54177 1.8499,7.90111 41.7056,125.24769 48.3585,142.38206 l 1.4734,3.79512 6.9528,2.03345 c 16.2046,4.73435 62.7606,17.39412 80.4791,21.88475 5.3069,1.34506 9.9368,2.38402 10.2884,2.30758 1.5921,-0.34632 6.7523,-28.23644 8.3296,-45.02508 1.6339,-17.39119 0.578,-25.56933 -4.0509,-31.39795 -11.7895,-14.84567 -69.5265,-55.6208 -108.9289,-76.92922 -18.3324,-9.91398 -37.7011,-19.34558 -42.0322,-20.4671 -0.4538,-0.11724 -0.7446,-0.18033 -0.9095,-0.12534 z"
       id="path5154" />
    <path
       style="fill:#f9d71f"
       d="m -1811.7852,-43.58398 c -2.1459,0.0268 -4.1319,0.1988 -5.6269,0.54882 -3.3175,0.77668 -8.5552,3.26936 -11.6387,5.54102 -6.7076,4.94154 -7.4561,-6.68004 5.9746,92.66797 5.5546,41.08639 10.2211,76.65599 10.3711,79.04297 0.2539,4.04068 -2.4502,6.74592 -39.2168,39.22265 -4.3856,3.8739 -8.4278,7.4828 -12.3691,11.00782 l 15.6719,12.67578 4.9589,-1.16016 c 18.6294,-12.80155 40.7138,-23.15905 66.3106,-31.05469 22.0767,-6.80981 24.5371,-7.29974 42.0762,-8.38281 12.9697,-0.80092 36.3566,0.19294 51.9121,1.9082 l 2.9824,-0.69921 7.9121,-17.2168 c -6.077,-1.66102 -11.0208,-3.02498 -17.9805,-4.91406 -27.589,-7.48849 -50.4589,-13.75593 -50.8203,-13.92579 -0.5049,-0.23739 -54.5464,-157.67417 -55.7988,-162.55664 -0.4024,-1.56816 -8.2811,-2.78538 -14.7188,-2.70507 z m 18.4336,2.93359 c -0.2229,-0.018 -0.3679,0.006 -0.414,0.0801 -0.2858,0.46052 51.2174,153.43728 53.2949,158.29883 0.3715,0.86939 39.3373,12.30345 69.0098,20.5996 l 3.5898,-7.81054 c -7.7786,-2.11689 -15.4144,-4.18801 -27.7324,-7.5332 -20.2614,-5.50243 -37.5752,-10.44397 -38.4746,-10.98047 -0.8992,-0.53652 -5.3179,-11.83312 -9.8184,-25.10352 -45.1851,-133.23483 -42.0605,-124.63811 -45.9316,-126.38476 -1.4858,-0.67039 -2.8545,-1.11215 -3.5235,-1.16602 z m -44.3164,10.31641 c -0.4805,0.13424 -1.6824,1.25528 -2.8925,2.72656 -2.3919,2.90827 -2.0183,6.7307 7.6992,78.4668 5.6182,41.47516 10.1114,76.98527 9.9843,78.9121 -0.1765,2.67548 -6.8335,9.37813 -28.1738,28.36133 -8.8351,7.85924 -14.3662,12.77882 -21.8008,19.39258 l -0.1152,0.10352 -0.2832,0.2539 0.3633,0.40821 0,0.57812 1.6972,0 4.7422,3.83594 c 4.2526,-3.76065 7.5236,-6.63865 12.2911,-10.86524 l 39.3339,-34.87304 -11.0722,-83.48047 c -6.0902,-45.91479 -11.3167,-83.6324 -11.6133,-83.81641 -0.037,-0.023 -0.091,-0.0231 -0.1602,-0.004 z m 117.7305,194.01367 c -7.5265,-0.0261 -17.204,0.36718 -25.6504,1.12304 -12.8375,1.14878 -45.4339,11.48142 -60.5098,19.17969 -3.0992,1.58256 -6.4654,3.45965 -9.9628,5.51758 l 107.5917,-25.18945 c -0.2873,-0.0372 -0.7537,-0.0865 -0.9746,-0.11914 -2.236,-0.3301 -5.9782,-0.49606 -10.4941,-0.51172 z"
       id="path5079"
       inkscape:connector-curvature="0" />
    <path
       style="fill:#f2b21c"
       d="m -1663.7578,129.27344 -0.7285,2.17578 c -1.6915,-0.46232 -3.0823,-0.84814 -4.9844,-1.36524 a 73.525715,126.33284 76.823048 0 1 -5.6406,7.2129 c 19.1506,5.3813 35.4369,9.76047 36.6191,9.61718 0.2888,-0.035 0.673,-0.7678 1.0254,-1.78906 l 1.1621,0.38867 2.1231,-6.34179 -29.5762,-9.89844 z m -12.7637,10.13476 -1.3515,1.05274 -0.7559,0.59375 a 73.525715,126.33284 76.823048 0 1 -19.3262,16.14453 c 11.0966,0.73356 21.2752,1.81609 26.4903,3.05469 2.5648,0.60915 9.632,3.18529 15.705,5.72461 6.073,2.53929 11.4391,4.21932 11.9258,3.73437 1.2535,-1.24889 5.1547,-19.5656 4.2754,-20.07422 -0.3218,-0.18612 -16.7853,-4.72445 -36.9629,-10.23047 z m -43.416,24.27149 c -7.5265,-0.0261 -17.204,0.36718 -25.6504,1.12304 -12.8375,1.14878 -45.4339,11.48142 -60.5098,19.17969 -23.0242,11.75692 -60.1424,38.90127 -65.2324,47.70508 l -2.1406,3.70117 5.5352,7.34375 c 3.0446,4.0388 6.8239,8.57222 8.3984,10.07422 3.2612,3.11143 3.4675,2.94026 10.8262,-9.01367 11.1134,-18.05305 30.4824,-32.97621 56.2343,-43.32617 16.0049,-6.43256 55.1621,-15.53321 66.6153,-15.48242 4.8493,0.0215 15.9613,1.21774 24.6933,2.6582 8.7321,1.44042 16.4443,2.48485 17.1387,2.32226 2.5898,-0.60631 19.8976,6.93624 27.0449,11.78516 7.4002,5.02049 7.4069,5.0202 8.7032,1.45703 1.5914,-4.37466 4.7493,-20.83012 4.3359,-22.5957 -0.1654,-0.70617 -7.1401,-4.00671 -15.4981,-7.33399 -11.9607,-4.76157 -18.3349,-6.28837 -29.9375,-7.17382 -8.1079,-0.61872 -17.1356,-1.47998 -20.0625,-1.91211 -2.236,-0.3301 -5.9782,-0.49606 -10.4941,-0.51172 z m -153.1563,14.0625 c -5.383,4.78874 -13.5808,12.08039 -15.8789,14.125 -9.6167,8.55618 -9.8919,8.98907 -7.6093,11.94531 1.3026,1.68714 2.5313,3.02905 2.7304,2.98242 0.1598,-0.0375 12.9538,-11.30523 28.6895,-25.22461 a 73.525715,126.33284 76.823048 0 1 -0.4941,-0.21289 l -0.9883,-0.42578 0,-0.008 c -0.036,-0.0171 -0.086,-0.0485 -0.1211,-0.0664 a 73.525715,126.33284 76.823048 0 1 -6.3282,-3.11523 z m 10.6387,5.07031 c -16.4923,14.72196 -28.8208,26.09032 -28.707,26.57617 0.1372,0.58674 3.2068,4.66333 6.8203,9.0586 5.7007,6.93368 6.7993,7.68379 8.3008,5.67187 0.9519,-1.27537 6.0637,-6.37736 11.3613,-11.33789 9.1369,-8.55557 19.4516,-16.27525 30.9082,-23.1875 a 73.525715,126.33284 76.823048 0 1 -27.4297,-6.52344 l -0.7871,-0.16211 -0.012,0.0195 -0.094,-0.0391 -0.3613,-0.0762 z"
       id="path4987"
       inkscape:connector-curvature="0" />
    <path
       style="fill:url(#radialGradient4163);fill-opacity:1;fill-rule:nonzero;stroke:none;stroke-width:0.05;stroke-linecap:square;stroke-linejoin:miter;stroke-miterlimit:4;stroke-dasharray:none;stroke-dashoffset:0;stroke-opacity:1"
       d="m -1740.9182,519.94113 c -41.2008,-5.14325 -70.6163,-30.01394 -81.6992,-69.07665 -3.9976,-14.0905 -3.9923,-37.43554 0,-49.03146 11.883,-34.41605 60.8627,-69.45282 107.0604,-76.58375 13.7201,-2.11783 35.5492,-0.75138 48.3957,3.02936 37.8574,11.14159 58.5664,36.23432 60.5318,73.34525 0.8868,16.74611 -1.7836,30.95898 -9.3646,49.84111 -7.0299,17.50982 -12.0435,25.62744 -21.6474,35.05062 -13.3043,13.05397 -26.2682,20.42586 -46.0579,26.19074 -23.4558,6.8328 -41.8365,9.15638 -57.2301,7.23478 z m -33.3022,-132.60371 c 14.8562,-7.06152 24.5674,-25.19911 14.804,-27.64959 -7.1176,-1.78634 -21.4593,5.21604 -28.2541,13.79533 -4.278,5.40129 -5.8257,12.1729 -3.4394,15.04811 2.0183,2.43197 10.5267,1.83054 16.8895,-1.19385 z"
       id="path4155"
       inkscape:connector-curvature="0"
       inkscape:export-xdpi="107"
       inkscape:export-ydpi="107" />
    <path
       inkscape:connector-curvature="0"
       style="fill:#000000"
       d="m -1814.4258,-54.806641 c -0.6791,0.0172 -1.3331,0.0557 -1.9629,0.115235 -19.4969,1.84385 -48.3428,33.363906 -86.1133,94.097656 -21.6188,34.76239 -35.6284,61.11235 -43.3457,81.52734 -4.197,11.10257 -4.4505,13.02401 -2.7089,20.46289 3.6792,15.71418 19.7005,40.48738 48.7441,75.3711 8.8303,10.60577 16.3763,20.6584 16.7695,22.33789 0.8295,3.5428 15.8712,22.98997 21.8614,28.26562 0.6738,0.59341 1.3248,1.12082 1.9453,1.60157 -1.6505,36.22447 -3.9516,73.62703 -6.9258,110.6582 -3.1229,38.8791 -6.791,75.57956 -8.5742,85.82617 -2.9522,16.96351 -12.4689,48.67542 -19.9297,66.41016 -11.1399,26.48028 -22.8302,46.133 -45.8438,77.04883 -32.8887,44.18185 -37.2717,54.9612 -36.4922,89.86132 0.4214,18.8607 1.7926,27.41652 7.2676,45.34961 2.1174,6.93617 4.6626,15.28517 5.6563,18.55469 8.4464,27.79168 8.9353,59.39871 1.2461,80.80078 -5.5008,15.31122 -13.2337,27.21772 -32.9571,50.72852 -15.4645,18.43405 -20.3517,26.0158 -22.7324,35.30468 -1.831,7.14428 -1.1823,16.82862 1.5098,22.51368 2.483,5.24351 8.266,11.29511 13.7988,14.4414 9.2265,5.24654 27.3414,9.30406 33.6914,7.55078 3.3373,-0.92147 8.275,-6.36341 11.8457,-13.05859 1.7943,-3.36471 2.7175,-4.52635 2.7305,-3.43945 0.021,0.90251 -0.6284,10.26974 -1.4258,20.81054 -5.0768,67.09562 -3.6253,92.27482 6.2324,107.89062 9.8802,15.6512 34.5993,20.7983 58.6348,12.2051 9.0112,-3.2217 19.6688,-8.9325 31.6914,-16.9805 13.575,-9.0871 19.8946,-13.9615 50.6387,-39.082 48.0176,-39.2341 67.2895,-52.89905 92.5625,-65.61329 24.6521,-12.402 44.6107,-17.98717 67.0918,-18.77344 36.0659,-1.26126 64.3534,11.18856 94.748,41.69922 16.5857,16.64901 25.8703,28.74571 55.7149,72.56051 24.1071,35.3913 35.6051,47.839 48.705,52.7207 3.6083,1.3446 5.3018,1.4765 15.2051,1.1758 12.0339,-0.3657 20.0855,-1.6482 28.6192,-4.5508 33.7243,-11.4703 51.5794,-46.7452 58.2871,-115.1718 3.9034,-39.81976 3.2988,-101.67154 -1.4649,-149.73051 -8.6156,-86.91958 -30.1377,-175.94504 -63.209,-262.10742 1.9322,0.41481 3.8754,0.81758 6.1621,1.17578 11.6261,1.82134 20.4334,1.88572 58.377,0.45117 35.3324,-1.33567 36.5257,-1.33849 43.5312,-0.26367 8.3978,1.2886 14.7222,3.43303 20.6368,6.98633 6.1492,3.69424 8.6724,6.01923 16.7675,15.48242 3.994,4.66909 8.9794,10.04923 11.0743,11.96094 6.4797,5.91409 13.9832,9.99741 23.9394,12.89258 -6.9292,66.01921 -15.1675,144.07466 -22.834,216.18945 -22.4378,211.06313 -25.5634,251.35973 -20.5488,264.84573 0.9366,2.519 7.2492,2.6432 14.0293,0.2754 8.7636,-3.0606 11.9324,-7.9518 10.959,-16.9219 -0.7529,-6.9395 4.2027,-56.8711 11.0117,-110.95899 6.8089,-54.08788 15.5889,-135.22944 19.5117,-180.31446 6.3095,-72.51613 10.9765,-125.44599 15,-169.43554 0.7738,-0.0184 1.4068,-0.0206 2.2832,-0.0488 12.9575,-0.41705 17.783,-1.30904 41.5684,-7.71875 21.5605,-5.81013 25.8405,-6.55259 40.6836,-7.06445 11.2531,-0.38727 13.9615,-0.29166 19.9824,0.7207 9.1606,1.54043 17.7899,4.15828 29.4414,8.93359 17.3103,7.09445 26.2027,9.11023 36.4219,8.25781 9.252,-0.77172 14.2746,-3.95454 17.5019,-11.0996 1.5613,-3.45655 1.8214,-4.79754 1.8829,-9.89063 0.1961,-16.32273 -7.7083,-29.89422 -22.6426,-38.88867 -10.4412,-6.28851 -22.4883,-10.18495 -52.4649,-16.94922 -9.2054,-2.0772 -16.8377,-3.86904 -16.9609,-3.98438 -0.947,-0.88613 7.4068,-6.759 14.0957,-9.91015 9.8584,-4.64421 19.0923,-7.26873 43.459,-12.34766 23.9744,-4.99713 34.3343,-8.32597 41.5761,-13.37305 8.2061,-5.71906 11.4994,-12.47067 11.42778,-24.40429 0,-1.70476 -0.094,-3.51461 -0.23828,-5.44336 -0.68081,-9.19721 -1.81473,-12.21404 -6.1113,-16.23438 -6.2601,-5.8576 -12.2258,-6.75274 -39.0196,-5.89453 -15.9144,0.50991 -20.616,0.85551 -26.3046,1.95508 -11.1329,2.15172 -23.2277,5.20612 -40.8184,10.30859 -9.0483,2.62452 -16.7189,4.69421 -17.0508,4.59571 -1.1016,-0.32642 10.3288,-11.94465 15.875,-16.13282 7.8973,-5.96343 16.3733,-10.8945 33.6895,-19.58984 26.4287,-13.27131 32.6741,-19.11548 32.2441,-30.1875 -0.1875,-4.81232 -1.9426,-9.72485 -5.6875,-15.90625 -3.1723,-5.23659 -6.4134,-8.6115 -10.7832,-11.23437 -5.8142,-3.48964 -10.4776,-4.55291 -18.6914,-4.25586 -9.9966,0.36029 -19.4899,2.9034 -36.832,9.88476 -27.1453,10.92794 -49.3974,23.08547 -68.5703,37.56641 0.079,-0.72248 0.1433,-1.32735 0.2226,-2.05469 7.432,-68.17295 13.469,-132.33842 13.416,-142.58984 -0.082,-15.61362 1.6472,-18.36473 10.6563,-16.95313 12.8036,2.00614 27.9388,-9.84187 24.1328,-18.89062 -1.4814,-3.52193 -8.9691,-7.38614 -16.6387,-8.58789 -13.2619,-2.07793 -13.6437,-3.5676 -7.7871,-30.43164 5.958,-27.32995 6.8975,-28.37916 28.9219,-32.26368 41.809,-7.37406 79.2666,-42.58801 94.664,-88.99414 21.6697,-65.3094 -24.5548,-137.263014 -95.539,-148.718746 -6.7358,-1.087068 -13.3344,-1.594418 -19.7598,-1.548828 -52.3211,0.371232 -93.1084,37.3379822 -102.1113,95.318359 -7.4916,48.246615 26.0883,91.572675 77.2266,99.642575 23.0553,3.6381 29.6631,1.84764 53.1621,-14.40234 25.7016,-17.77312 26.8823,-19.69442 28,-45.566407 0.9138,-21.149126 -2.2151,-31.143635 -14.418,-46.044922 -13.4066,-16.371416 -18.8559,-19.104066 -38.9863,-19.548828 -39.2261,-0.866632 -62.1572,32.262868 -41.7266,60.285156 7.8983,10.833521 11.7227,12.185303 24.4336,8.638672 18.1514,-5.064656 20.813,-15.188686 7.3906,-28.111328 -12.0784,-11.628875 -6.7087,-16.621314 14.334,-13.324219 32.3607,5.070453 33.4224,51.738406 1.4316,62.910156 -13.173,4.60018 -51.6231,0.0635 -65.0898,-7.67969 -13.1161,-7.54176 -20.3301,-36.459775 -15.9961,-64.121091 7.1762,-45.79911789 52.608,-69.46715 102.9824,-53.6484371 40.2569,12.641623 58.4073,39.5995031 58.4453,86.8125001 0.04,48.892438 -35.4963,86.140508 -88.6894,92.958988 l -31.6582,4.05664 -2.7813,38.69336 c -2.635,36.64581 -3.4436,38.68362 -15.2851,38.51757 -17.7713,-0.24934 -22.4701,27.48671 -4.8184,28.44336 11.5326,0.62504 11.7518,3.70107 4.9766,69.54493 -2.6983,26.22271 -7.7405,75.38434 -12.3067,119.88671 -0.4541,-1.63557 -1.0916,-4.06722 -1.8339,-7.125 -2.3005,-9.47485 -7.3728,-23.56668 -10.6758,-29.64843 -8.282,-15.24977 -18.0041,-22.93962 -29.2696,-23.15625 -10.8944,-0.20953 -22.9069,5.85539 -26.8457,13.56054 -1.6129,3.15518 -1.6841,3.69725 -1.4648,10.29688 0.211,6.34134 0.5164,7.93178 3.4316,17.77148 7.6025,25.6595 6.7488,31.23922 -9.0878,59.48828 -8.5082,15.17642 -10.9584,21.34949 -12.2305,30.81641 -0.5176,3.85208 -1.4624,8.12335 -2.1016,9.48633 -3.644,7.77019 -14.8064,14.54105 -30.7265,18.64648 -12.2042,3.14714 -19.3811,3.9872 -39.4766,4.63868 -17.5509,0.56965 -19.4501,0.53236 -23.7402,-0.50782 -12.81,-3.10579 -24.5004,-11.61037 -31.5762,-22.67383 l -84.2266,-163.43359 c -1.8476,-2.82549 -4.008,-6.21228 -6.9804,-10.97656 -36.0942,-57.85374 -74.5748,-111.12636 -118.375,-163.91016 2.7496,-8.70877 5.9347,-23.65721 6.1132,-30.84765 0.1123,-4.52288 2.6887,-18.63094 5.7266,-31.35157 10.2306,-42.83815 13.5617,-72.358529 9.9199,-87.914059 -1.7399,-7.43101 -2.8302,-9.058357 -11.5039,-17.160157 -12.8937,-12.04321 -40.7194,-32.406335 -68.0449,-49.7968746 -51.3667,-32.6907404 -95.8699,-52.3778404 -116.9219,-51.8437504 z m 2.6406,11.222657 c 6.4377,-0.0803 14.3164,1.136918 14.7188,2.705078 1.2524,4.88248 55.2939,162.319246 55.7988,162.556636 0.014,0.006 0.5613,0.15794 0.6387,0.18165 7e-4,5.9e-4 0.011,0.031 0.012,0.0312 0.019,0.009 0.7531,0.21178 0.8945,0.25391 0,10e-4 0.017,0.0446 0.018,0.0449 0.375,0.17621 24.0985,6.67692 52.7188,14.44532 20.8643,5.66322 38.896,10.61553 47.4316,13.01171 0.856,0.58684 -3.0286,18.82032 -4.2793,20.06641 -0.4867,0.48495 -5.8528,-1.19508 -11.9258,-3.73437 -6.073,-2.53932 -13.1402,-5.11546 -15.705,-5.72461 -11.4757,-2.72555 -46.7115,-4.78432 -63.8086,-3.72852 -17.5391,1.08307 -19.9995,1.573 -42.0762,8.38281 -36.0031,11.10561 -65.0957,27.05323 -87.3301,47.87305 -5.2976,4.96053 -10.4094,10.06252 -11.3613,11.33789 -1.5015,2.01192 -2.6001,1.26181 -8.3008,-5.67187 -3.6135,-4.39527 -6.6831,-8.47186 -6.8203,-9.0586 -0.042,-0.17858 1.7199,-1.93615 4.5879,-4.64844 7.4522,-6.89666 18.989,-17.29165 32.0781,-28.85351 19.418,-17.15232 29.6494,-26.27927 35.0078,-31.67969 0.2387,-0.2361 0.4875,-0.48028 0.709,-0.70312 5.5332,-5.4904 6.2037,-7.22668 6.0742,-9.28711 -0.15,-2.38698 -4.8165,-37.956572 -10.3711,-79.042972 -13.4307,-99.34801 -12.6822,-87.726429 -5.9746,-92.667969 3.0835,-2.27167 8.3212,-4.764325 11.6387,-5.541015 1.495,-0.35002 3.481,-0.522068 5.6269,-0.548828 z m 19.3965,3.136718 c 0.704,0.19968 1.6035,0.531041 2.5606,0.962891 3.8711,1.74665 0.7465,-6.850074 45.9316,126.384766 4.5005,13.270399 8.9192,24.566989 9.8184,25.103519 0.8994,0.5365 18.2132,5.47802 38.4746,10.98047 65.9252,17.90334 59.5727,15.73373 58.709,20.04882 -0.4159,2.07825 -1.1349,3.82476 -1.5977,3.88086 -0.6952,0.0843 -6.7021,-1.42064 -15.3281,-3.73828 -30.6592,-8.35653 -84.6141,-24.03733 -85.0606,-25.08203 -1.9202,-4.49359 -44.4487,-130.686826 -53.5078,-158.541016 z m 13.5254,5.464844 c 5.9698,1.73063 27.4371,12.284289 47.2852,23.417969 36.6627,20.5657898 87.4222,56.634848 98.539,70.017578 3.9291,4.72985 4.8663,6.971056 5.4746,13.103516 0.9307,9.38302 -0.5592,25.383105 -4.3203,46.382809 -1.4939,8.34057 -3.2934,15.36768 -4.1972,16.54493 -20.0103,-4.972 -91.6469,-24.49055 -93.4629,-25.60547 -1.347,-0.82691 -41.1685,-117.4729118 -49.3184,-143.861332 z m -59.7324,5.291016 c 1.8429,12.42243 6.1827,44.071125 11.0996,81.140625 l 11.4824,86.574221 -38.1425,33.8164 c -21.6339,19.17935 -39.4963,34.90838 -39.6954,34.95508 -0.1991,0.0466 -1.4278,-1.29528 -2.7304,-2.98242 -2.2826,-2.95624 -2.0074,-3.38913 7.6093,-11.94531 5.4882,-4.88299 22.5532,-20.06317 37.9219,-33.73438 21.3403,-18.9832 27.9973,-25.68585 28.1738,-28.36133 0.1271,-1.92683 -4.3661,-37.436945 -9.9843,-78.912105 -9.7175,-71.73611 -10.0911,-75.558537 -7.6992,-78.466797 0.7065,-0.85899 1.4054,-1.590204 1.9648,-2.083984 z m -9.7324,10.929687 c 4.3786,27.1834805 20.47,149.498129 19.6523,150.841799 -0.3965,0.65199 -17.6002,16.15722 -38.2304,34.45703 -15.0131,13.3171 -28.1356,24.77276 -34.5176,30.17187 -3.1826,-1.5808 -25.6278,-33.37413 -31.3145,-44.51367 -3.5645,-6.9829 -5.6843,-12.81599 -5.8281,-16.04492 -0.5676,-12.73374 28.3452,-68.941259 57.7422,-112.255859 12.4741,-18.3796994 27.8278,-38.40795 32.4961,-42.65625 z m 130.75,184.523439 c 4.6847,0.0163 8.5671,0.18882 10.8867,0.53125 3.0362,0.44828 12.4016,1.34058 20.8125,1.98242 12.0363,0.91855 18.6488,2.50382 31.0566,7.44336 3.9993,1.59212 7.6015,3.14993 10.4375,4.46875 0.2538,0.18167 0.4173,0.32918 0.4395,0.42383 0.4134,1.76558 -2.7446,18.22104 -4.3359,22.5957 -1.2964,3.56317 -1.303,3.56346 -8.7032,-1.45703 -7.1473,-4.84892 -24.4551,-12.39147 -27.0449,-11.78516 -0.6944,0.16259 -8.4066,-0.88184 -17.1387,-2.32226 -8.732,-1.44046 -19.844,-2.6367 -24.6933,-2.6582 -11.4532,-0.0508 -50.6104,9.04986 -66.6153,15.48242 -25.7519,10.34996 -45.1209,25.27312 -56.2343,43.32617 -7.3587,11.95393 -7.565,12.1251 -10.8262,9.01367 -1.5745,-1.502 -5.3538,-6.03542 -8.3984,-10.07422 l -5.5352,-7.34375 1.3301,-2.29883 c 10.2387,-11.30495 43.6455,-35.27149 65.1797,-46.26757 15.6395,-7.98602 49.4561,-18.70282 62.7734,-19.89454 8.7622,-0.78411 18.8015,-1.19309 26.6094,-1.16601 z m 17.7285,159.98437 c 7.9422,-0.0714 15.9348,0.38164 21.2988,1.38868 35.3561,6.63786 59.9715,27.16805 67.5742,56.35937 5.6035,21.51476 2.7529,49.00364 -7.0957,68.4668 -1.0014,1.97905 -2.6031,5.91642 -3.5605,8.74609 -2.0655,6.10524 -4.9983,10.9382 -11.2285,18.49805 -10.7512,13.04578 -29.0876,25.54898 -43.6778,29.7832 -2.9172,0.84655 -9.1515,2.65954 -13.8515,4.03516 -11.2668,3.29773 -18.115,4.64168 -28.3418,5.54687 l 0,-0.006 c -9.2499,0.82042 -9.9119,0.81974 -19.4434,-0.0273 -39.4439,-3.50004 -69.3321,-26.58631 -81.1269,-62.66992 -6.9588,-21.28961 -6.6854,-43.61204 0.7265,-59.6543 14.3731,-31.10856 54.8507,-59.56601 97.7227,-68.69922 5.1728,-1.10199 13.0616,-1.696 21.0039,-1.76758 z m -214.207,310.98633 c 3.5856,0 4.7314,2.2585 5.039,9.89063 0.2432,6.03641 -0.2897,9.7261 -4.5762,31.72265 -6.0596,31.10037 -9.1452,47.77161 -13.4726,72.81836 -3.1402,18.17551 -3.8642,21.92694 -4.0215,20.74024 -0.032,-0.24318 -2.8917,-7.70792 -6.3574,-16.58789 -11.9797,-30.69655 -14.4164,-41.82009 -12.3145,-56.23633 3.6038,-24.71624 25.1539,-62.34766 35.7032,-62.34766 z"
       id="path6028" />
    <path
       inkscape:connector-curvature="0"
       style="fill:#ffffff"
       d="m -1563.8994,365.13784 4.473,7.0633 c 14.6977,23.18174 34.9354,59.52042 52.1363,93.62262 61.6062,122.14003 104.4671,247.96781 119.6007,351.10885 5.6803,38.71334 7.4062,68.37527 6.3692,109.60024 -2.4336,96.73075 -9.4154,142.06325 -24.1787,157.03815 -4.1826,4.2427 -8.2227,6.198 -14.7884,7.1469 -9.0628,1.3095 -18.1286,0.9957 -21.6464,-0.7456 -7.0848,-3.507 -14.4044,-12.4764 -36.3256,-44.5458 -7.6824,-11.2389 -17.6965,-25.459 -22.2568,-31.5953 -39.3811,-52.99147 -76.5175,-80.75109 -120.3719,-89.97845 -7.008,-1.47456 -11.9941,-1.96965 -23.0603,-2.29443 -19.8111,-0.58129 -32.8963,1.04873 -51.6539,6.42701 -37.6411,10.79281 -73.2709,33.6742 -124.4531,79.92657 -40.7893,36.8606 -51.503,45.5327 -65.0223,52.6567 -10.725,5.6515 -23.0157,7.9983 -28.0862,5.3602 -4.6456,-2.4171 -8.1744,-8.8105 -10.1098,-18.3235 -9.8798,-48.56471 8.7921,-188.06488 55.2918,-413.09762 14.6442,-70.8696 28.2057,-134.02197 28.8703,-134.45996 0.3445,-0.22707 2.8951,-1.90261 5.675,-3.7277 l 5.0581,-3.32276 1.1891,1.81241 c 3.2672,4.9727 11.9506,14.67051 17.218,19.22969 29.6281,25.6448 69.1624,35.04764 111.2326,26.45366 52.1559,-10.65423 95.3871,-48.30049 109.6452,-95.48644 4.2234,-13.97672 5.2768,-21.48256 5.2702,-37.50816 0,-15.15432 -1.0319,-23.07045 -4.3575,-33.54268 -0.9574,-3.0145 -1.5236,-5.60977 -1.2597,-5.76507 0.7644,-0.4499 17.1734,-2.61139 21.5563,-2.84076 l 3.9848,-0.21187 z"
       id="path4174"
       inkscape:export-xdpi="107"
       inkscape:export-ydpi="107" />
    <g
       id="g5679"
       transform="matrix(1.5448543,-1.2364401,1.2364401,1.5448543,316.32541,-2363.1417)">
      <path
         inkscape:connector-curvature="0"
         id="path5671"
         d="m -1918.334,579.76106 c 0.5308,-0.59474 14.497,-13.20445 19.1913,-17.3316 7.5819,-6.66599 7.4519,-6.62728 18.5983,-5.53147 42.9772,4.22528 89.9529,4.55945 151.2479,1.07603 46.1534,-2.62291 76.1232,-5.76309 110.4208,-11.5697 9.9631,-1.6867 10.9409,-1.55921 10.9924,1.43335 0.034,1.97752 -4.5896,17.35871 -10.0795,33.53013 l -2.6362,7.76533 -6.1459,2.04488 c -11.57,3.84966 -26.5634,7.37841 -43.9484,10.34356 -35.2008,6.00368 -73.3716,7.89235 -119.8934,5.93216 -31.8472,-1.34183 -65.3861,-6.34579 -91.6703,-13.6769 -11.8799,-3.31353 -20.6966,-6.62362 -35.5148,-13.33344 -0.4594,-0.20805 -0.7124,-0.51507 -0.5622,-0.68233 z"
         style="fill:#000000;fill-opacity:1;fill-rule:nonzero;stroke:none;stroke-width:5.60300016;stroke-linecap:square;stroke-linejoin:miter;stroke-miterlimit:4;stroke-dasharray:none;stroke-dashoffset:0;stroke-opacity:1" />
      <path
         inkscape:connector-curvature="0"
         id="path5669"
         d="m -1907.2657,578.92072 c 0.7051,-0.63201 3.0404,-2.77191 5.1912,-4.75416 4.3655,-4.02349 15.3308,-13.61373 15.5585,-13.60779 0.082,0.002 2.6034,0.25676 5.6061,0.56578 69.7869,7.18159 181.3325,3.02252 256.3823,-9.55973 4.7123,-0.78996 8.7252,-1.45839 8.9176,-1.48545 0.5465,-0.0766 -5.7813,22.31989 -9.5329,33.7405 l -1.0377,3.15969 -2.5772,0.90513 c -17.057,5.99142 -45.4404,11.53213 -72.5993,14.17166 -23.3692,2.27133 -39.7404,2.8421 -67.2634,2.34532 -27.3968,-0.49469 -42.5612,-1.55148 -63.3621,-4.41611 -30.1204,-4.14796 -52.8783,-9.8167 -71.805,-17.88591 l -4.7588,-2.02887 1.2807,-1.15006 z"
         style="fill:#ff0000;fill-opacity:1;fill-rule:nonzero;stroke:none;stroke-width:5.60300016;stroke-linecap:square;stroke-linejoin:miter;stroke-miterlimit:4;stroke-dasharray:none;stroke-dashoffset:0;stroke-opacity:1" />
    </g>
    <path
       inkscape:connector-curvature="0"
       style="fill:#f2b21c;fill-opacity:1;fill-rule:nonzero;stroke:none;stroke-width:2.2627418;stroke-linecap:square;stroke-linejoin:miter;stroke-miterlimit:4;stroke-dasharray:none;stroke-dashoffset:0;stroke-opacity:1"
       d="m -1152.2832,-35.167969 c -13.5686,0.129875 -27.0747,3.034767 -39.6719,9.09375 -40.3995,19.4313916 -62.6233,62.140748 -53.5918,102.994141 6.9379,31.383548 31.6841,57.985758 60.0137,64.513668 9.5751,2.20639 28.1334,1.82775 36.8281,-0.75195 24.413,-7.24334 37.0084,-20.65716 41.0176,-43.679687 4.1365,-23.753682 -6.3387,-47.473635 -25.2187,-57.105469 -6.8894,-3.514721 -21.8435,-6.274726 -27.6876,-5.109375 -20.6594,4.119684 -30.6795,13.983328 -30.6035,30.128907 0.059,12.581509 7.2636,22.890625 16,22.890625 4.8444,0 15.0821,-5.410274 15.0821,-7.970703 0,-0.986131 -2.8552,-3.758042 -6.3438,-6.158204 -7.2944,-5.018693 -9.2129,-7.96045 -9.2129,-14.126953 0,-8.099973 11.0447,-15.599395 22.9356,-15.572265 7.5905,0.01732 18.7603,5.12763 26.5078,12.126953 17.0542,15.407469 16.0191,37.031387 -2.7559,57.574221 -9.9242,10.85862 -20.0803,15.48555 -35.7109,16.27343 -10.4985,0.52919 -14.1135,0.0694 -24.041,-3.0625 -22.0329,-6.95094 -32.049,-15.22312 -40.5742,-33.507808 -6.5823,-14.117707 -8.9923,-25.542038 -8.3262,-39.472656 0.513,-10.730139 1.2594,-13.493502 6.6719,-24.675781 4.9811,-10.290803 8.3301,-14.840088 18.3203,-24.8945312 10.0039,-10.0682744 14.5151,-13.4306318 24.8437,-18.5117188 11.0077,-5.415124 14.0293,-6.27437 23.6289,-6.710937 19.1744,-0.872015 56.4708,9.099222 74.3809,19.88476512 32.5856,19.62325088 44.8013,82.98535688 24.209,125.57421688 -5.9303,12.26491 -24.7246,30.95631 -39.3868,39.17383 -16.0498,8.99535 -33.6398,14.31547 -54.3359,16.43359 -9.7293,0.99573 -18.0074,2.13041 -18.3965,2.51953 -0.3892,0.38912 -1.3784,14.0376 -2.1972,30.33204 -0.8188,16.29442 -1.8094,31.07184 -2.2012,32.83789 -0.3918,1.76606 -0.039,4.47009 0.7851,6.00976 0.824,1.53967 2.7244,2.80078 4.2227,2.80078 3.6778,0 5.163,-6.1657 6.9277,-28.76562 2.1881,-28.02149 5.8232,-32.35126 29.3086,-34.91602 10.3652,-1.13195 14.7831,-2.46473 25.2871,-7.625 23.108,-11.35216 49.3594,-34.39042 58.2071,-51.08203 13.8498,-26.12842 18.7684,-69.812636 10.4941,-93.193358 -16.1072,-45.5137199 -61.0919,-74.693789 -105.416,-74.269531 z m -40.1816,297.109379 c -5.0416,0.0466 -9.3723,0.4913 -12.1993,1.44726 -12.3964,4.19196 -2.6161,10.84148 18.0899,12.29883 19.8516,1.39721 39.1855,-0.64985 39.1855,-4.14844 0,-4.8507 -27.0705,-9.76421 -45.0761,-9.59765 z m 10.2812,24.56054 -1.6367,4.95117 c -2.1419,6.4786 -5.1819,25.02804 -8.6914,53.03321 -4.5698,36.46595 -33.2318,313.71322 -60.8945,589.01953 -9.3396,92.94924 -17.368,171.40594 -17.8399,174.34964 -0.5337,3.3293 -0.2085,6.1367 0.8613,7.4257 7.026,8.4658 9.4617,-3.7046 18.9668,-94.8007 3.4899,-33.44618 11.1142,-105.99569 16.9434,-161.22073 5.8291,-55.22504 14.4764,-140.50336 19.2168,-189.50586 4.7403,-49.0025 13.0013,-131.41577 18.3574,-183.14063 14.2154,-137.27985 17.9103,-182.85343 15.7637,-194.45312 l -1.0469,-5.65821 z"
       id="path5847" />
    <g
       id="g6152">
      <ellipse
         ry="114.88842"
         rx="114.88878"
         cy="707.62244"
         cx="-1666.5082"
         id="path5683"
         style="fill:#000000;fill-opacity:1;fill-rule:nonzero;stroke:none;stroke-width:5.60300016;stroke-linecap:square;stroke-linejoin:miter;stroke-miterlimit:4;stroke-dasharray:none;stroke-dashoffset:0;stroke-opacity:1" />
      <path
         inkscape:connector-curvature="0"
         id="path5699"
         d="m -1666.5081,599.73102 a 107.89229,107.89229 0 0 0 -107.8929,107.89303 107.89229,107.89229 0 0 0 107.8929,107.88981 107.89229,107.89229 0 0 0 107.8929,-107.88981 107.89229,107.89229 0 0 0 -107.8929,-107.89303 z"
         style="fill:#f9d71f;fill-opacity:1;fill-rule:nonzero;stroke:none;stroke-width:0.05;stroke-linecap:square;stroke-linejoin:miter;stroke-miterlimit:4;stroke-dasharray:none;stroke-dashoffset:0;stroke-opacity:1" />
      <path
         id="path6042"
         transform="translate(-2019.5586,-54.817238)"
         d="m 367.62695,659.98633 c -0.6126,-0.0255 -1.21317,0.17393 -2.13867,0.63476 -2.99871,1.49295 -3.82504,2.91254 -3.95117,7.43164 -0.18918,1.06145 -0.26953,2.36185 -0.26953,4.09571 0,4.03422 0.19058,5.22583 1.14648,7.16601 0.9791,1.98749 13.78027,16.83167 16.26367,18.85938 0.0764,0.0624 0.12096,0.11292 0.1875,0.17187 -0.65943,0.12168 -1.53039,0.21594 -2.65429,0.29297 -4.8169,0.33015 -6.62734,1.31823 -10.80274,5.88672 l -2.5,2.73438 -1.99023,-1.58399 c -2.9843,-2.37782 -4.53706,-3.03711 -7.16016,-3.03711 -4.5372,0 -7.28516,2.55607 -11.19336,10.41797 -2.6243,5.27905 -4.05859,9.54665 -4.05859,12.07031 0,2.47639 1.47234,6.96864 3.14844,9.60938 0.8279,1.30443 1.5039,2.66197 1.5039,3.01758 0,0.35562 -1.39877,2.19754 -3.10937,4.09179 -3.771,4.17573 -6.39257,9.11883 -9.32617,17.58203 -0.97452,2.81125 -2.01872,5.26717 -2.61719,6.23047 -1.34632,-0.0321 -4.59199,-0.75993 -5.0332,-1.20117 -0.1231,-0.12303 0.17726,-2.07778 0.66796,-4.3457 0.4908,-2.26793 1.06394,-6.27113 1.27344,-8.89453 l 0.38086,-4.76953 4,-6.05274 c 5.8251,-8.81629 6.62386,-10.65407 6.97266,-16.03711 l 0.29101,-4.50195 1.68946,-0.80469 c 2.55013,-1.21608 3.21708,-3.77492 1.96484,-6.44922 -0.29762,-1.21896 -0.99237,-2.50405 -2.10742,-3.73828 -1.7657,-1.95454 -4.56306,-3.64062 -6.03906,-3.64062 -0.4149,0 -1.57418,0.55628 -2.57618,1.23632 l -1.82226,1.23633 -3.51172,-1.90039 c -0.84002,-0.45466 -1.59923,-0.90786 -2.23047,-1.31054 0.62704,-0.55861 2.04367,-1.50124 3.75,-2.45899 6.9469,-3.89937 7.32441,-4.48503 8.75781,-13.625 0.5893,-3.75763 1.36917,-5.28759 6.22657,-12.20117 2.3505,-3.34551 2.50423,-3.75592 2.67773,-7.19141 0.12425,-2.4614 0.11103,-3.30451 -0.32617,-3.87695 0.0827,-2.36302 -0.0873,-2.85361 -1.04883,-3.52734 -2.5511,-1.78679 -7.75811,-0.46923 -11.63281,2.9414 -3.0149,2.65391 -5.02762,6.82299 -7.91602,16.39453 -1.149,3.80748 -2.50261,7.33669 -3.00781,7.8418 -0.5051,0.50512 -3.59142,2.09862 -6.85742,3.54102 -13.001,5.74181 -15.52381,7.979 -18.31641,16.24414 -0.9799,2.90026 -1.14416,8.1057 -0.32226,10.26757 0.3012,0.79213 1.75461,2.71507 3.22851,4.27344 l 2.67969,2.83399 -4.61719,4.52929 c -5.0467,4.95308 -7.50232,8.68863 -10.13672,15.41797 -0.70678,1.80542 -1.38343,3.15386 -1.84375,3.75195 -0.31446,-0.0547 -0.60326,-0.11286 -0.93164,-0.1621 -0.96875,-0.14527 -1.65103,-0.15345 -2.25,-0.0293 -0.0654,-0.0101 -0.12021,-0.0214 -0.18555,-0.0312 -1.7888,-0.26823 -2.65919,-0.14027 -3.71679,0.55273 -2.5142,1.64736 -3.63918,4.75039 -6.70508,18.47657 -1.0032,4.49073 -2.25691,9.1437 -2.78711,10.33984 -0.5302,1.19616 -2.65676,4.26903 -4.72266,6.82812 -2.0659,2.55909 -4.07369,5.26744 -4.46289,6.01954 -1.9678,3.80218 -1.17327,8.73024 1.67383,10.38867 1.87814,1.09396 3.33988,0.88789 5.69922,-1.07032 1.31004,-0.22675 2.75398,-1.3001 4.90625,-3.44921 4.1394,-4.13335 8.08247,-10.28585 13.20117,-20.60352 l 3.1875,-6.42578 0.60938,0.82227 c 2.4866,3.36578 5.91938,5.54092 9.83398,6.23046 1.7645,0.3108 3.32585,0.68323 3.46875,0.82618 0.143,0.14293 -0.12234,1.26007 -0.58984,2.48437 -1.6412,4.29735 -0.58511,8.51585 2.90039,11.57617 2.304,2.02294 4.25053,2.65404 9.17383,2.97852 1.79712,0.11844 2.93904,0.19689 3.48437,0.23633 -0.65161,0.51217 -1.31507,1.21414 -1.91797,2.02148 -1.84527,1.76566 -3.63476,4.85137 -3.63476,6.57617 0,2.75597 2.28558,6.53362 5.11328,8.45117 2.1199,1.43759 2.74716,2.24729 3.69336,4.77735 0.49351,1.31953 1.32301,3.08073 2.05273,4.4043 -2.37729,-1.18372 -6.1585,-3.41604 -9.56836,-5.7168 l -3.42382,-2.3086 -4.32618,1.1875 c -2.3799,0.65307 -5.90312,1.71939 -7.82812,2.3711 -3.0228,1.0234 -3.9771,1.13197 -7,0.79101 -1.925,-0.21713 -5.04198,-0.40777 -6.92578,-0.42187 -3.2433,-0.0243 -3.5151,0.0659 -5.125,1.67578 -0.2785,0.2785 -0.51033,0.56384 -0.72071,0.85352 -0.64749,0.23626 -1.13023,0.66739 -1.92382,1.46093 -3.6679,3.66786 -1.57604,8.38017 5.07226,11.42383 4.2266,1.93504 8.68526,2.1781 15.22266,0.82813 8.4424,-1.74336 9.53186,-1.59752 14.07226,1.89257 2.973,2.28533 7.90461,4.56244 12.69141,5.86133 4.5907,1.24566 10.82956,1.05299 14.25586,-0.44336 3.4898,-1.52405 7.38973,-4.85562 10.04883,-8.58203 1.3061,-1.8304 2.7147,-3.45626 3.1289,-3.61523 0.4142,-0.15895 2.67961,0.0468 5.03321,0.46093 5.4203,0.95385 11.15706,0.95091 15.13476,-0.01 1.80496,-0.43582 2.83275,-0.70286 3.41016,-0.64258 -0.005,0.0676 -0.009,0.1148 -0.0137,0.18555 -0.14485,2.06168 -0.1017,2.72456 0.55664,3.52344 -0.0853,1.88588 0.13356,2.37831 1.37109,3.55468 0.847,0.80473 2.43726,1.6689 3.53516,1.91797 3.5847,0.81313 13.0122,-1.11274 20.75,-4.23828 8.4997,-3.43333 11.53136,-4.05747 22.28906,-4.58203 10.9963,-0.5362 13.18253,-1.09945 14.42773,-3.72461 1.30125,-2.74337 -0.7354,-6.37528 -4.17968,-8.59961 -1.59911,-1.85096 -4.04911,-3.3813 -6.80469,-3.90625 -2.469,-0.47034 -17.38707,0.5977 -23.98047,1.7168 -1.7159,0.29124 -2.91949,0.49406 -3.91016,0.64258 0.96956,-1.30402 1.89064,-3.09349 2.07032,-4.05079 0.3593,-1.91551 0.0188,-8.69373 -0.50196,-9.98242 -0.2305,-0.57064 0.62705,-1.21749 3.24805,-2.44726 8.7195,-4.09128 9.41371,-6.77808 4.34961,-16.86133 -1.8006,-3.5851 -2.10735,-4.52876 -1.37305,-4.22852 3.5344,1.44497 7.96615,0.66868 10.46875,-1.83398 1.9173,-1.91723 2.39068,-4.08405 1.55078,-7.08399 -0.6375,-2.27708 -0.61535,-2.39615 0.59375,-3.17382 0.63719,-0.40978 1.67032,-1.28917 2.42188,-2.04102 0.0736,0.57905 0.14928,1.13392 0.21484,1.85742 0.1911,2.10883 0.64948,4.55651 1.01758,5.4375 0.3695,0.8844 2.6513,3.33211 5.0957,5.46485 5.7324,5.00144 6.54578,6.02202 10.20118,12.82422 3.1055,5.77882 4.92529,8.19839 6.55859,8.71679 0.25191,0.0799 0.5532,0.0643 0.87305,0.004 0.7708,0.87211 1.45259,1.37605 2.10156,1.58203 1.3536,0.42964 3.8502,-1.22948 5.4668,-3.63281 1.1591,-1.72325 1.43291,-2.78286 1.5996,-6.16602 0.37191,-7.54633 -1.63864,-11.12898 -10.18554,-18.14453 -3.1178,-2.55909 -5.93607,-5.13253 -6.26367,-5.71875 -0.4767,-0.85352 -0.33638,-1.98704 0.70312,-5.6875 2.6662,-9.49079 2.83778,-14.10551 0.73828,-19.74805 -2.0443,-5.49425 -9.4446,-10.98047 -14.8125,-10.98047 -1.45031,0 -3.32018,0.42754 -4.99219,1.10938 -0.82823,0.20791 -1.67004,0.48267 -2.45117,0.82812 l -0.86133,0.38086 -0.82226,-3.35351 c -1.7192,-7.01535 -4.57287,-11.20168 -10.85547,-15.92188 l -1.48437,-1.11523 0.1289,-0.10156 c 1.06211,-0.84368 1.87829,-1.5398 2.53125,-2.1543 2.71559,-2.24663 3.73438,-3.51597 3.73438,-4.72852 0,-3.47341 -4.46441,-9.12996 -13.69141,-17.34961 -5.341,-4.75795 -7.67137,-7.35277 -13.38476,-14.89453 -7.47521,-9.86724 -8.59183,-11.09468 -10.85743,-11.95312 -0.4484,-0.1699 -0.8199,-0.26591 -1.1875,-0.28125 z m -16.36914,62.5 c 0.52778,-0.11262 0.98689,0.98758 0.93946,2.81055 -0.0517,1.97078 -1.13679,3.81641 -1.83399,3.11914 -0.5173,-0.51722 -0.41537,-3.42878 0.17383,-4.97852 0.22747,-0.59827 0.4808,-0.89998 0.7207,-0.95117 z m 18.19922,11.67969 3.90625,2.62304 c 9.0622,6.08918 8.79529,5.80839 11.14649,11.78906 2.9186,7.42431 4.39815,9.87808 9.22265,15.29688 3.8671,4.34341 4.15842,4.82446 4.10742,6.76953 -0.0216,0.82828 -0.0356,1.15968 -0.0469,1.49219 -0.28042,-0.24895 -0.27434,-0.24775 -0.60742,-0.54297 -1.66051,-1.47167 -3.37827,-2.5596 -5.29297,-3.33594 -2.29558,-1.15997 -4.86369,-1.78001 -8.02149,-1.98437 l -3.73242,-0.24219 -1.78711,-4.55273 c -3.3928,-8.63515 -6.72631,-13.53211 -12.47461,-18.32032 -1.92196,-1.60095 -3.47713,-3.02414 -3.55859,-3.25195 0.29133,-0.24967 0.76109,-0.58014 1.31641,-0.9082 0.8891,-0.52518 2.56195,-1.82829 3.71875,-2.89453 l 2.10351,-1.9375 z m -16.76953,10.73437 c 0.1199,-0.11995 0.48284,1.30274 0.80664,3.16211 0.005,0.0268 0.0129,0.0514 0.0176,0.0781 0.1244,0.68987 0.26835,1.3647 0.4375,2.02735 0.29972,1.18054 0.67373,2.33017 1.1543,3.48047 0.14448,0.34919 0.29979,0.69802 0.46289,1.04883 1.76418,3.79468 4.64798,7.74185 9.40039,13.125 1.08596,1.23009 2.00058,2.32993 2.52929,3.01953 0.002,0.006 0.0215,0.033 0.0215,0.0371 0,0.16774 -1.2937,-0.15788 -2.875,-0.72266 -3.5653,-1.27344 -11.71465,-1.76878 -16.18555,-0.98437 -1.7546,0.30782 -4.82065,0.87171 -6.81445,1.2539 -1.9937,0.38215 -3.625,0.52444 -3.625,0.31641 0,-0.0389 0.0712,-0.13889 0.14062,-0.23828 0.4482,-0.48811 1.0716,-1.11114 1.76953,-1.75391 2.74098,-2.52424 5.25425,-5.28588 6.98438,-7.5957 0.25454,-0.33146 0.4781,-0.64322 0.69922,-0.95508 0.003,-0.005 0.006,-0.009 0.01,-0.0137 0.64061,-0.90466 1.14694,-1.72709 1.44727,-2.39649 0.568,-1.26604 1.5655,-4.63504 2.2168,-7.48633 0.6512,-2.8513 1.28234,-5.28239 1.40234,-5.40234 z m 33.10352,32.33594 c 1.2606,0 3.72656,1.97152 3.72656,2.97851 0,0.83038 -1.6079,0.60476 -3.375,-0.47265 -1.9723,-1.20257 -2.15486,-2.50586 -0.35156,-2.50586 z m -62.70899,4.09179 c 0.56573,-0.0867 0.40687,0.0659 -0.28515,0.625 -0.5338,0.43124 -1.42221,0.78321 -1.97461,0.78321 -1.4049,0 -0.41929,-0.85096 1.44531,-1.24805 0.35652,-0.0759 0.62588,-0.13124 0.81445,-0.16016 z m 44.94727,3.08399 c 0.32979,0.0191 0.55527,0.10876 0.72461,0.26367 0.17943,0.74741 0.42831,1.70727 0.5625,2.16016 0.1888,0.63687 -0.71954,1.41637 -3.64844,3.13281 -7.0331,4.1216 -8.05517,4.36573 -20.00977,4.77734 l -10.60937,0.36524 -3.89063,1.91601 c -2.1397,1.05424 -4.05932,2.00221 -4.26562,2.10547 -0.2062,0.10326 -0.375,-0.29851 -0.375,-0.89258 0,-1.20839 -1.96756,-3.33588 -3.39258,-3.87304 2.80754,-0.92902 7.9309,-4.06373 10.39258,-6.52539 l 3.04687,-3.04688 4.86719,1.125 c 4.1483,0.95861 5.83545,1.0807 11.43945,0.83399 4.2016,-0.18496 7.97288,-0.67263 10.45118,-1.35157 2.5362,-0.69476 3.91343,-1.03609 4.70703,-0.99023 z"
         style="fill:#000000;fill-opacity:1;fill-rule:nonzero;stroke:none;stroke-width:0.80000001;stroke-linecap:square;stroke-linejoin:miter;stroke-miterlimit:4;stroke-dasharray:none;stroke-dashoffset:0;stroke-opacity:1"
         inkscape:connector-curvature="0" />
      <path
         inkscape:connector-curvature="0"
         id="path5693"
         d="m -1652.4471,610.10416 c -0.4287,-0.006 -0.9012,0.13045 -1.4104,0.40454 -2.0037,1.07908 -2.8635,3.16012 -2.8929,7.01678 -0.032,4.3467 1.2868,6.98196 5.9789,11.97514 1.4694,1.56394 4.2411,4.66911 6.1609,6.90224 1.9201,2.23297 3.9657,4.38828 4.5465,4.78647 2.1151,1.44922 3.0613,4.87716 1.6899,6.11822 -0.5329,0.4824 -0.9651,0.51604 -4.2172,0.32578 -3.4946,-0.20441 -3.6873,-0.18629 -5.1875,0.54774 -2.0187,0.98774 -4.8579,3.57344 -6.5872,5.99651 -2.078,2.91182 -2.441,2.88347 -6.0252,-0.45109 -1.9998,-1.86014 -3.2134,-2.37353 -5.6097,-2.37353 -2.8127,-0.004 -4.7286,1.63295 -7.4179,6.32945 -3.225,5.63192 -5.0803,10.62031 -5.0619,13.69709 0,2.55362 1.4488,6.65086 2.8281,8.02995 0.9212,0.92129 2.2553,3.56608 2.2553,4.47144 0,0.46104 -0.7402,1.39062 -2.2696,2.85683 -5.099,4.88887 -7.7312,9.54762 -10.4574,18.49072 -2.1171,6.94463 -2.605,7.90211 -4.0953,8.02637 -1.6206,0.13514 -7.5072,-1.35038 -8.3057,-2.0943 -0.7509,-0.69948 -0.7134,-1.29626 0.315,-4.80437 0.3251,-1.10786 0.7107,-2.85922 0.8593,-3.89145 0.1492,-1.03236 0.4077,-2.48111 0.5763,-3.22202 0.1684,-0.74083 0.3004,-2.89688 0.3187,-4.79005 0.021,-3.85456 0.073,-4.00052 2.7064,-7.33185 2.0688,-2.61537 5.216,-7.52057 6.7198,-10.46792 1.7037,-3.32067 2.1298,-5.73012 1.686,-9.34739 -0.179,-1.4487 -0.3257,-2.84116 -0.3257,-3.09671 -6e-4,-0.3119 0.6889,-0.69057 2.0906,-1.14202 2.4922,-0.80262 2.9967,-1.24532 2.9967,-2.62057 0,-1.48731 -0.9355,-3.11788 -2.6995,-4.70413 -2.3432,-2.10686 -3.9301,-2.15799 -5.5955,-0.17905 -1.3595,1.61558 -1.1493,1.66616 -8.2089,-2.06926 -2.2475,-1.18894 -4.2485,-2.35415 -4.4429,-2.58834 -0.9266,-1.11643 0.3736,-2.17722 6.931,-5.67787 2.4146,-1.28904 4.7416,-2.62855 5.1732,-2.97498 1.0033,-0.80557 1.5061,-2.72692 2.087,-7.9691 0.2466,-2.22627 0.6623,-4.64953 0.9202,-5.38076 0.2581,-0.73109 1.9991,-3.35307 3.8697,-5.82823 1.8709,-2.47518 3.6415,-4.96934 3.9346,-5.54542 0.3293,-0.6476 0.5853,-1.97566 0.6659,-3.47621 0.1215,-2.21586 0.075,-2.4648 -0.5048,-2.87115 -0.8845,-0.6197 -3.5321,-0.19184 -5.9,0.95944 -2.5732,1.25122 -4.652,3.40957 -5.9749,6.19698 -1.3835,2.91525 -3.5108,9.2845 -4.3176,12.92742 -0.8023,3.62291 -1.6254,5.5001 -2.896,6.61582 -1.2139,1.06576 -3.2246,2.10933 -5.4883,2.84613 -2.4333,0.79207 -8.49,3.60141 -11.1911,5.19099 -2.561,1.50715 -3.8154,2.90713 -5.6707,6.32945 -3.2552,6.00315 -3.2021,11.87974 0.1364,14.89641 0.5549,0.50108 1.6428,1.47503 2.4166,2.1623 1.5886,1.41138 2.2615,2.90886 1.7435,3.87716 -0.1811,0.33663 -1.5914,1.55865 -3.1397,2.71722 -5.5782,4.17428 -9.0135,9.09038 -11.6421,16.66492 -1.2431,3.58234 -1.8527,4.84492 -2.456,5.07645 -0.2415,0.0927 -1.6551,-0.14623 -3.1397,-0.53342 l -2.6991,-0.70525 -1.1063,0.59785 c -0.8841,0.474 -1.2593,0.96088 -1.8295,2.39145 -0.9849,2.47254 -2.8168,9.87877 -3.9164,15.82362 -1.5805,8.54322 -2.5276,10.55761 -7.4322,15.85226 -3.7681,4.0676 -4.9129,6.14894 -4.9404,8.95715 -0.021,2.19469 0.6524,3.63752 1.9047,4.07405 1.1937,0.41609 2.8151,-0.4655 4.9475,-2.69573 4.3984,-4.60003 8.7057,-11.5683 13.3963,-21.66619 3.4851,-7.50273 4.2814,-9.01721 4.8616,-9.24 0.8334,-0.31983 1.9286,0.66237 2.7139,2.43799 0.8677,1.96172 3.4733,4.6187 5.735,5.84971 1.1836,0.6443 2.2648,0.9143 4.9799,1.22797 5.1246,0.59192 5.5257,1.18628 3.4545,5.11937 -1.3801,2.61998 -1.4933,3.81478 -0.6015,6.197 1.299,3.46901 4.0791,5.36011 8.7102,5.91776 2.8064,0.33795 6.9697,0.0416 10.3283,-0.73749 5.0758,-1.17706 10.9245,-5.03051 12.5768,-8.29128 0.8921,-1.76035 1.6423,-2.01484 3.9629,-1.31387 0.9292,0.28058 2.56,0.77251 3.6193,1.08831 2.8305,0.84238 8.4238,1.2206 12.838,0.8628 2.9444,-0.23867 4.5463,-0.56496 7.9298,-1.60742 5.4454,-1.67767 5.9293,-1.77084 6.5837,-1.2924 0.5571,0.40763 2.4604,7.20327 2.1549,7.69701 -0.3005,0.4868 -8.3018,5.45867 -9.9953,6.21131 -0.9274,0.41206 -2.9611,1.08681 -4.525,1.50003 -2.7277,0.72015 -3.1408,0.7445 -10.0313,0.6444 -3.951,-0.0548 -7.9229,-0.084 -8.8284,-0.0644 -2.1042,0.0471 -5.1211,1.17732 -8.309,3.11459 -3.1336,1.90441 -4.6958,2.48192 -5.5205,2.04061 -0.5105,-0.27396 -0.5746,-0.49799 -0.3866,-1.42125 0.4625,-2.27243 0.3496,-3.07282 -0.5297,-3.73395 -0.9916,-0.74507 -4.1241,-1.03807 -5.6636,-0.52983 -1.9862,0.65538 -5.0117,4.51014 -5.03,6.38312 0,1.07644 1.1917,3.7243 2.2375,4.9619 0.4593,0.54379 1.6107,1.37896 2.5597,1.85802 2.1863,1.10353 2.7509,1.84123 3.7519,4.87597 1.0664,3.2329 1.9785,5.00127 3.5907,6.981 2.0768,2.54998 1.7762,4.00246 -0.8234,4.00246 -2.7888,0 -6.95,-2.05788 -13.543,-6.69103 l -3.573,-2.50958 -3.8519,0.99883 c -2.1183,0.54897 -5.1555,1.52032 -6.752,2.15871 -3.9706,1.58736 -4.7678,1.66723 -9.53,0.95946 -2.2336,-0.33183 -4.9908,-0.60145 -6.129,-0.60145 -1.9395,0 -2.1385,0.0639 -3.1862,1.0239 -0.9952,0.91237 -1.1205,1.18382 -1.1205,2.47019 10e-4,2.35991 2.0285,4.36126 5.9034,5.83541 4.4432,1.69081 7.9186,1.66122 14.7497,-0.12533 2.5649,-0.67079 4.2797,-0.94512 5.9893,-0.94512 2.8874,-0.006 3.8496,0.43511 6.8271,3.09672 2.221,1.98565 3.7387,2.85011 7.6647,4.36402 3.1316,1.20736 5.8276,1.92195 8.4022,2.23034 7.3493,0.88046 13.2414,-2.17505 17.8142,-9.24358 2.3687,-3.6621 2.976,-4.22107 4.5932,-4.21007 0.7648,0.002 2.8036,0.33917 4.5322,0.75179 6.1676,1.47217 12.4754,1.27967 16.554,-0.50479 2.4775,-1.084 3.7336,-1.05393 4.3784,0.10018 0.3905,0.69713 0.3977,1.03694 0.047,2.54537 -0.7326,3.14917 -0.7403,4.05811 -0.032,4.95832 0.8746,1.11182 3.4094,1.83717 5.4846,1.57163 4.8936,-0.62605 15.005,-3.35889 16.6791,-4.50722 1.2423,-0.85191 4.2119,-1.89722 8.8104,-3.10387 4.9759,-1.30635 5.1278,-1.32174 13.332,-1.36756 8.0572,-0.0448 9.7594,-0.28215 11.3915,-1.60384 0.7998,-0.64735 0.8658,-2.2223 0.1471,-3.61224 -0.5883,-1.13791 -2.684,-2.84368 -4.4536,-3.62652 -2.0595,-0.91095 -3.6999,-0.99316 -9.161,-0.46542 -2.706,0.26137 -6.1591,0.47616 -7.6722,0.47616 -2.8288,0 -6.0369,0.4882 -13.5968,2.0764 -2.3871,0.50139 -4.7778,0.9129 -5.3128,0.9129 -0.8609,10e-4 -0.9736,-0.0902 -0.9736,-0.81984 0,-1.10596 0.8046,-2.35629 2.7709,-4.30673 1.6389,-1.62569 2.6437,-3.23729 3.0357,-4.86523 0.4219,-1.751 0.2247,-5.15143 -0.4045,-6.94163 -0.71,-2.02074 -0.8,-4.08859 -0.2004,-4.586 0.2274,-0.18864 1.1964,-0.54492 2.1554,-0.79474 2.1042,-0.54812 5.3731,-2.26802 6.8091,-3.58359 2.1524,-1.97191 1.9774,-4.02324 -0.8306,-9.80922 -1.9958,-4.11231 -3.6245,-6.60888 -5.9248,-9.06816 -4.2528,-4.54616 -8.8609,-6.23447 -14.9824,-5.4917 -1.6129,0.20164 -3.0053,0.28513 -3.0897,0.20058 -0.085,-0.0851 -0.6268,-1.75064 -1.2028,-3.70172 -1.8742,-6.34638 -5.5451,-13.06145 -9.1932,-16.81887 -1.0138,-1.04393 -2.9901,-2.78308 -4.3892,-3.86282 -3.1444,-2.4262 -3.5872,-2.92099 -3.5872,-3.96665 0,-0.84182 1.548,-2.69575 2.2518,-2.69575 0.6477,0 4.5412,-2.94748 5.5097,-4.17071 1.4228,-1.7963 2.0439,-1.82876 4.2782,-0.24701 1.0325,0.73088 3.9337,2.64364 6.4474,4.25304 2.5135,1.60951 5.0104,3.44466 5.549,4.07406 0.6537,0.76355 1.4074,2.35971 2.2662,4.80793 3.1108,8.86986 5.03,12.06938 10.4858,17.47401 1.9936,1.97523 3.7048,3.84001 3.802,4.14563 0.096,0.30555 0,1.14113 -0.1897,1.85804 -0.441,1.57475 -0.2488,2.47655 0.7912,3.71247 1.5432,1.83412 4.3541,2.70078 6.7767,2.09071 1.6104,-0.40552 3.5676,-1.95961 4.11,-3.26855 0.5316,-1.28396 0.23,-3.29709 -0.7017,-4.66832 -0.4348,-0.63956 -0.7948,-1.39192 -0.7948,-1.66827 0,-0.56765 1.4027,-1.83859 2.8068,-2.54538 1.5212,-0.76562 2.8901,-2.24082 3.6408,-3.92013 0.7623,-1.70549 1.2872,-1.93355 2.499,-1.08473 1.1534,0.80784 1.5321,2.19706 1.5321,5.6242 0,3.88588 0.3903,5.78263 1.5072,7.32468 0.4762,0.65736 2.4526,2.39346 4.3927,3.85924 3.977,3.0045 5.1851,4.23762 7.1851,7.33186 1.6104,2.49166 5.4703,9.88877 5.4703,10.48225 0,0.22023 0.4811,0.96223 1.0703,1.65037 1.9064,2.22718 3.5423,1.5134 5.4989,-2.40218 0.7803,-1.56189 0.9129,-2.16302 0.9129,-4.10268 -0.021,-6.28316 -2.4606,-10.47504 -8.8281,-15.13984 -5.8913,-4.31584 -8.2307,-6.69798 -8.2307,-8.37005 -2e-4,-0.29346 0.5992,-2.39299 1.3318,-4.66834 1.685,-5.23268 2.2556,-8.27427 2.2556,-11.91424 0,-6.77803 -2.8149,-11.29947 -9.0468,-14.57421 -3.9096,-2.05439 -6.3583,-1.88488 -10.7365,0.74823 -1.3818,0.83114 -2.6593,1.51052 -2.8389,1.51076 -0.3748,6.6e-4 -1.0639,-2.22452 -1.9188,-6.19699 -1.4827,-6.88865 -3.3795,-9.70061 -9.0253,-13.38206 -2.7113,-1.76795 -3.5441,-2.67657 -3.5441,-3.85566 0,-0.91236 0.7354,-1.56098 4.1171,-3.63729 2.2519,-1.38246 2.7671,-1.82826 2.7671,-2.41292 0,-1.10218 -1.1333,-3.88901 -1.8402,-4.52154 -0.347,-0.31046 -1.4082,-1.57197 -2.3591,-2.80672 -2.1132,-2.74354 -4.5951,-5.15591 -8.4739,-8.23401 -4.0464,-3.21145 -7.2876,-6.54772 -10.3139,-10.62188 -4.6966,-6.32261 -6.5282,-8.81753 -7.9442,-10.82235 -1.6558,-2.34486 -3.4575,-4.05131 -4.5751,-4.3318 -0.1322,-0.036 -0.2722,-0.0537 -0.4152,-0.0537 z m -15.7485,55.04615 0,0.004 c 0.5299,-0.004 1.0645,0.23779 1.6538,0.7339 1.1515,0.96884 1.6398,2.69776 1.4465,5.13016 -0.1705,2.15682 -0.8801,3.54785 -2.2984,4.50364 -1.2964,0.87339 -2.1539,0.85035 -3.0822,-0.0789 -2.1486,-2.14799 -1.6579,-7.72048 0.852,-9.69465 0.4964,-0.39047 0.9606,-0.59784 1.4283,-0.59784 z m 1.3354,21.62322 c 0.1577,0.004 0.3236,0.0281 0.4975,0.0716 1.3426,0.33705 1.8572,1.37342 2.0944,4.22085 0.2965,3.55995 0.8185,5.45321 2.3986,8.67433 1.7736,3.61574 4.1876,6.81913 8.5455,11.34146 4.755,4.93413 5.4132,6.04486 4.2244,7.12064 -0.8566,0.77508 -2.7925,0.60177 -5.6779,-0.50837 -4.178,-1.60731 -5.4867,-1.84604 -10.0885,-1.81505 -3.7655,0.0249 -4.7388,0.15155 -9.5801,1.24941 -2.9634,0.6719 -6.2119,1.31745 -7.2245,1.43199 -1.6656,0.18779 -1.8717,0.15113 -2.1695,-0.40454 -0.5352,-1.00047 -0.3882,-2.56059 0.3402,-3.5442 0.3702,-0.50014 1.6184,-1.69485 2.771,-2.65278 7.3458,-6.10635 9.4072,-9.71072 10.7795,-18.85231 0.6799,-4.53154 1.556,-6.37298 3.0894,-6.33301 z m 32.5672,33.41933 c 2.9974,0 5.5507,1.79742 6.3509,4.46785 0.5731,1.91246 0.448,2.64638 -0.5406,3.15757 -1.8128,0.93746 -4.2462,0.42805 -6.8413,-1.43558 -1.5353,-1.10268 -2.1552,-2.14942 -2.1552,-3.64447 0,-1.70803 1.0496,-2.54537 3.1862,-2.54537 z m -59.8182,3.59433 0,0 c 0.6528,3.2e-4 0.7313,0.18374 0.9487,0.75537 0.6678,1.75675 -0.6516,3.86872 -3.1753,5.08002 -1.1487,0.55198 -3.8086,0.83656 -5.1338,0.55132 -1.4837,-0.32105 -1.479,-2.52468 0.021,-3.93084 1.1344,-1.06593 3.934,-2.16485 6.0143,-2.35922 0.6058,-0.0569 1.021,-0.0963 1.3211,-0.0966 z"
         style="fill:#ffffff;fill-opacity:1;fill-rule:nonzero;stroke:none;stroke-width:3.41042733;stroke-linecap:square;stroke-linejoin:miter;stroke-miterlimit:4;stroke-dasharray:none;stroke-dashoffset:0;stroke-opacity:1" />
    </g>
  </g>
</svg>
