<?xml version="1.0" encoding="us-ascii" standalone="no"?><svg xmlns="http://www.w3.org/2000/svg" xmlns:xlink="http://www.w3.org/1999/xlink" contentStyleType="text/css" height="219px" preserveAspectRatio="none" style="width:1318px;height:219px;background:#FFFFFF;" version="1.1" viewBox="0 0 1318 219" width="1318px" zoomAndPan="magnify"><defs/><g><!--class Kunde--><g id="elem_Kunde"><rect codeLine="1" fill="#F1F1F1" height="48" id="Kunde" rx="2.5" ry="2.5" style="stroke:#181818;stroke-width:0.5;" width="77" x="234" y="164"/><ellipse cx="249" cy="180" fill="#B4A7E5" rx="11" ry="11" style="stroke:#181818;stroke-width:1.0;"/><path d="M249.9531,176.7813 L251.6719,176.7813 C252.0625,176.7813 252.25,176.75 252.375,176.6719 C252.6406,176.5156 252.7813,176.2344 252.7813,175.9375 C252.7813,175.6719 252.6719,175.4063 252.4375,175.2344 C252.2656,175.125 252.125,175.0938 251.6719,175.0938 L246.5313,175.0938 C246.0938,175.0938 245.9688,175.1094 245.8125,175.2031 C245.5625,175.3594 245.4063,175.6563 245.4063,175.9375 C245.4063,176.2188 245.5469,176.4688 245.7656,176.6406 C245.9219,176.75 246.1094,176.7813 246.5313,176.7813 L248.25,176.7813 L248.25,183.2969 L246.5313,183.2969 C246.0938,183.2969 245.9688,183.3125 245.8125,183.4219 C245.5625,183.5781 245.4063,183.8594 245.4063,184.1563 C245.4063,184.4063 245.5469,184.6719 245.7656,184.8281 C245.9219,184.9531 246.125,185 246.5313,185 L251.6719,185 C252.4219,185 252.7813,184.7188 252.7813,184.1563 C252.7813,183.875 252.6719,183.625 252.4375,183.4531 C252.2656,183.3281 252.125,183.2969 251.6719,183.2969 L249.9531,183.2969 L249.9531,176.7813 Z " fill="#000000"/><text fill="#000000" font-family="sans-serif" font-size="14" font-style="italic" lengthAdjust="spacing" textLength="45" x="263" y="184.8467">Kunde</text><line style="stroke:#181818;stroke-width:0.5;" x1="235" x2="310" y1="196" y2="196"/><line style="stroke:#181818;stroke-width:0.5;" x1="235" x2="310" y1="204" y2="204"/></g><!--class Privatkunde--><g id="elem_Privatkunde"><rect codeLine="2" fill="#F1F1F1" height="80.5938" id="Privatkunde" rx="2.5" ry="2.5" style="stroke:#181818;stroke-width:0.5;" width="118" x="82.5" y="15"/><ellipse cx="97.5" cy="31" fill="#ADD1B2" rx="11" ry="11" style="stroke:#181818;stroke-width:1.0;"/><path d="M99.8438,26.6719 C98.9063,26.2344 98.3125,26.0938 97.4375,26.0938 C94.8125,26.0938 92.8125,28.1719 92.8125,30.8906 L92.8125,32.0156 C92.8125,34.5938 94.9219,36.4844 97.8125,36.4844 C99.0313,36.4844 100.1875,36.1875 100.9375,35.6406 C101.5156,35.2344 101.8438,34.7813 101.8438,34.3906 C101.8438,33.9375 101.4531,33.5469 100.9844,33.5469 C100.7656,33.5469 100.5625,33.625 100.375,33.8125 C99.9219,34.2969 99.9219,34.2969 99.7344,34.3906 C99.3125,34.6563 98.625,34.7813 97.8594,34.7813 C95.8125,34.7813 94.5156,33.6875 94.5156,31.9844 L94.5156,30.8906 C94.5156,29.1094 95.7656,27.7969 97.5,27.7969 C98.0781,27.7969 98.6875,27.9531 99.1563,28.2031 C99.6406,28.4844 99.8125,28.7031 99.9063,29.1094 C99.9688,29.5156 100,29.6406 100.1406,29.7656 C100.2813,29.9063 100.5156,30.0156 100.7344,30.0156 C101,30.0156 101.2656,29.875 101.4375,29.6563 C101.5469,29.5 101.5781,29.3125 101.5781,28.8906 L101.5781,27.4688 C101.5781,27.0313 101.5625,26.9063 101.4688,26.75 C101.3125,26.4844 101.0313,26.3438 100.7344,26.3438 C100.4375,26.3438 100.2344,26.4375 100.0156,26.75 L99.8438,26.6719 Z " fill="#000000"/><text fill="#000000" font-family="sans-serif" font-size="14" lengthAdjust="spacing" textLength="86" x="111.5" y="35.8467">Privatkunde</text><line style="stroke:#181818;stroke-width:0.5;" x1="83.5" x2="199.5" y1="47" y2="47"/><text fill="#000000" font-family="sans-serif" font-size="14" lengthAdjust="spacing" textLength="95" x="88.5" y="63.9951">name : string</text><text fill="#000000" font-family="sans-serif" font-size="14" lengthAdjust="spacing" textLength="94" x="88.5" y="80.292">email : string</text><line style="stroke:#181818;stroke-width:0.5;" x1="83.5" x2="199.5" y1="87.5938" y2="87.5938"/></g><!--class Businesskunde--><g id="elem_Businesskunde"><rect codeLine="6" fill="#F1F1F1" height="96.8906" id="Businesskunde" rx="2.5" ry="2.5" style="stroke:#181818;stroke-width:0.5;" width="295" x="315" y="7"/><ellipse cx="405.75" cy="23" fill="#ADD1B2" rx="11" ry="11" style="stroke:#181818;stroke-width:1.0;"/><path d="M408.0938,18.6719 C407.1563,18.2344 406.5625,18.0938 405.6875,18.0938 C403.0625,18.0938 401.0625,20.1719 401.0625,22.8906 L401.0625,24.0156 C401.0625,26.5938 403.1719,28.4844 406.0625,28.4844 C407.2813,28.4844 408.4375,28.1875 409.1875,27.6406 C409.7656,27.2344 410.0938,26.7813 410.0938,26.3906 C410.0938,25.9375 409.7031,25.5469 409.2344,25.5469 C409.0156,25.5469 408.8125,25.625 408.625,25.8125 C408.1719,26.2969 408.1719,26.2969 407.9844,26.3906 C407.5625,26.6563 406.875,26.7813 406.1094,26.7813 C404.0625,26.7813 402.7656,25.6875 402.7656,23.9844 L402.7656,22.8906 C402.7656,21.1094 404.0156,19.7969 405.75,19.7969 C406.3281,19.7969 406.9375,19.9531 407.4063,20.2031 C407.8906,20.4844 408.0625,20.7031 408.1563,21.1094 C408.2188,21.5156 408.25,21.6406 408.3906,21.7656 C408.5313,21.9063 408.7656,22.0156 408.9844,22.0156 C409.25,22.0156 409.5156,21.875 409.6875,21.6563 C409.7969,21.5 409.8281,21.3125 409.8281,20.8906 L409.8281,19.4688 C409.8281,19.0313 409.8125,18.9063 409.7188,18.75 C409.5625,18.4844 409.2813,18.3438 408.9844,18.3438 C408.6875,18.3438 408.4844,18.4375 408.2656,18.75 L408.0938,18.6719 Z " fill="#000000"/><text fill="#000000" font-family="sans-serif" font-size="14" lengthAdjust="spacing" textLength="105" x="426.25" y="27.8467">Businesskunde</text><line style="stroke:#181818;stroke-width:0.5;" x1="316" x2="609" y1="39" y2="39"/><text fill="#000000" font-family="sans-serif" font-size="14" lengthAdjust="spacing" textLength="95" x="321" y="55.9951">name : string</text><text fill="#000000" font-family="sans-serif" font-size="14" lengthAdjust="spacing" textLength="94" x="321" y="72.292">email : string</text><text fill="#000000" font-family="sans-serif" font-size="14" lengthAdjust="spacing" textLength="283" x="321" y="88.5889">isVorsteuerAbzugsberechtigt : boolean</text><line style="stroke:#181818;stroke-width:0.5;" x1="316" x2="609" y1="95.8906" y2="95.8906"/></g><!--class Rechnung--><g id="elem_Rechnung"><rect codeLine="12" fill="#F1F1F1" height="48" id="Rechnung" rx="2.5" ry="2.5" style="stroke:#181818;stroke-width:0.5;" width="104" x="936.5" y="164"/><ellipse cx="951.5" cy="180" fill="#B4A7E5" rx="11" ry="11" style="stroke:#181818;stroke-width:1.0;"/><path d="M952.4531,176.7813 L954.1719,176.7813 C954.5625,176.7813 954.75,176.75 954.875,176.6719 C955.1406,176.5156 955.2813,176.2344 955.2813,175.9375 C955.2813,175.6719 955.1719,175.4063 954.9375,175.2344 C954.7656,175.125 954.625,175.0938 954.1719,175.0938 L949.0313,175.0938 C948.5938,175.0938 948.4688,175.1094 948.3125,175.2031 C948.0625,175.3594 947.9063,175.6563 947.9063,175.9375 C947.9063,176.2188 948.0469,176.4688 948.2656,176.6406 C948.4219,176.75 948.6094,176.7813 949.0313,176.7813 L950.75,176.7813 L950.75,183.2969 L949.0313,183.2969 C948.5938,183.2969 948.4688,183.3125 948.3125,183.4219 C948.0625,183.5781 947.9063,183.8594 947.9063,184.1563 C947.9063,184.4063 948.0469,184.6719 948.2656,184.8281 C948.4219,184.9531 948.625,185 949.0313,185 L954.1719,185 C954.9219,185 955.2813,184.7188 955.2813,184.1563 C955.2813,183.875 955.1719,183.625 954.9375,183.4531 C954.7656,183.3281 954.625,183.2969 954.1719,183.2969 L952.4531,183.2969 L952.4531,176.7813 Z " fill="#000000"/><text fill="#000000" font-family="sans-serif" font-size="14" font-style="italic" lengthAdjust="spacing" textLength="72" x="965.5" y="184.8467">Rechnung</text><line style="stroke:#181818;stroke-width:0.5;" x1="937.5" x2="1039.5" y1="196" y2="196"/><line style="stroke:#181818;stroke-width:0.5;" x1="937.5" x2="1039.5" y1="204" y2="204"/></g><!--class InterneVerechnung--><g id="elem_InterneVerechnung"><rect codeLine="13" fill="#F1F1F1" height="80.5938" id="InterneVerechnung" rx="2.5" ry="2.5" style="stroke:#181818;stroke-width:0.5;" width="171" x="763" y="15"/><ellipse cx="778" cy="31" fill="#ADD1B2" rx="11" ry="11" style="stroke:#181818;stroke-width:1.0;"/><path d="M780.3438,26.6719 C779.4063,26.2344 778.8125,26.0938 777.9375,26.0938 C775.3125,26.0938 773.3125,28.1719 773.3125,30.8906 L773.3125,32.0156 C773.3125,34.5938 775.4219,36.4844 778.3125,36.4844 C779.5313,36.4844 780.6875,36.1875 781.4375,35.6406 C782.0156,35.2344 782.3438,34.7813 782.3438,34.3906 C782.3438,33.9375 781.9531,33.5469 781.4844,33.5469 C781.2656,33.5469 781.0625,33.625 780.875,33.8125 C780.4219,34.2969 780.4219,34.2969 780.2344,34.3906 C779.8125,34.6563 779.125,34.7813 778.3594,34.7813 C776.3125,34.7813 775.0156,33.6875 775.0156,31.9844 L775.0156,30.8906 C775.0156,29.1094 776.2656,27.7969 778,27.7969 C778.5781,27.7969 779.1875,27.9531 779.6563,28.2031 C780.1406,28.4844 780.3125,28.7031 780.4063,29.1094 C780.4688,29.5156 780.5,29.6406 780.6406,29.7656 C780.7813,29.9063 781.0156,30.0156 781.2344,30.0156 C781.5,30.0156 781.7656,29.875 781.9375,29.6563 C782.0469,29.5 782.0781,29.3125 782.0781,28.8906 L782.0781,27.4688 C782.0781,27.0313 782.0625,26.9063 781.9688,26.75 C781.8125,26.4844 781.5313,26.3438 781.2344,26.3438 C780.9375,26.3438 780.7344,26.4375 780.5156,26.75 L780.3438,26.6719 Z " fill="#000000"/><text fill="#000000" font-family="sans-serif" font-size="14" lengthAdjust="spacing" textLength="139" x="792" y="35.8467">InterneVerechnung</text><line style="stroke:#181818;stroke-width:0.5;" x1="764" x2="933" y1="47" y2="47"/><text fill="#000000" font-family="sans-serif" font-size="14" lengthAdjust="spacing" textLength="123" x="769" y="63.9951">abteilung : string</text><text fill="#000000" font-family="sans-serif" font-size="14" lengthAdjust="spacing" textLength="95" x="769" y="80.292">wert : double</text><line style="stroke:#181818;stroke-width:0.5;" x1="764" x2="933" y1="87.5938" y2="87.5938"/></g><!--class ExternVersandt--><g id="elem_ExternVersandt"><rect codeLine="17" fill="#F1F1F1" height="80.5938" id="ExternVersandt" rx="2.5" ry="2.5" style="stroke:#181818;stroke-width:0.5;" width="145" x="1070" y="15"/><ellipse cx="1085" cy="31" fill="#ADD1B2" rx="11" ry="11" style="stroke:#181818;stroke-width:1.0;"/><path d="M1087.3438,26.6719 C1086.4063,26.2344 1085.8125,26.0938 1084.9375,26.0938 C1082.3125,26.0938 1080.3125,28.1719 1080.3125,30.8906 L1080.3125,32.0156 C1080.3125,34.5938 1082.4219,36.4844 1085.3125,36.4844 C1086.5313,36.4844 1087.6875,36.1875 1088.4375,35.6406 C1089.0156,35.2344 1089.3438,34.7813 1089.3438,34.3906 C1089.3438,33.9375 1088.9531,33.5469 1088.4844,33.5469 C1088.2656,33.5469 1088.0625,33.625 1087.875,33.8125 C1087.4219,34.2969 1087.4219,34.2969 1087.2344,34.3906 C1086.8125,34.6563 1086.125,34.7813 1085.3594,34.7813 C1083.3125,34.7813 1082.0156,33.6875 1082.0156,31.9844 L1082.0156,30.8906 C1082.0156,29.1094 1083.2656,27.7969 1085,27.7969 C1085.5781,27.7969 1086.1875,27.9531 1086.6563,28.2031 C1087.1406,28.4844 1087.3125,28.7031 1087.4063,29.1094 C1087.4688,29.5156 1087.5,29.6406 1087.6406,29.7656 C1087.7813,29.9063 1088.0156,30.0156 1088.2344,30.0156 C1088.5,30.0156 1088.7656,29.875 1088.9375,29.6563 C1089.0469,29.5 1089.0781,29.3125 1089.0781,28.8906 L1089.0781,27.4688 C1089.0781,27.0313 1089.0625,26.9063 1088.9688,26.75 C1088.8125,26.4844 1088.5313,26.3438 1088.2344,26.3438 C1087.9375,26.3438 1087.7344,26.4375 1087.5156,26.75 L1087.3438,26.6719 Z " fill="#000000"/><text fill="#000000" font-family="sans-serif" font-size="14" lengthAdjust="spacing" textLength="113" x="1099" y="35.8467">ExternVersandt</text><line style="stroke:#181818;stroke-width:0.5;" x1="1071" x2="1214" y1="47" y2="47"/><text fill="#000000" font-family="sans-serif" font-size="14" lengthAdjust="spacing" textLength="102" x="1076" y="63.9951">kunde : Kunde</text><text fill="#000000" font-family="sans-serif" font-size="14" lengthAdjust="spacing" textLength="95" x="1076" y="80.292">wert : double</text><line style="stroke:#181818;stroke-width:0.5;" x1="1071" x2="1214" y1="87.5938" y2="87.5938"/></g><g id="elem_NP"><path d="M6,175.5 L6,200.6328 A0,0 0 0 0 6,200.6328 L199,200.6328 A0,0 0 0 0 199,200.6328 L199,185.5 L189,175.5 L109.9572,175.5 L129.693,96.008 L101.9572,175.5 L6,175.5 A0,0 0 0 0 6,175.5 " fill="#FEFFDD" style="stroke:#181818;stroke-width:0.5;"/><path d="M189,175.5 L189,185.5 L199,185.5 L189,175.5 " fill="#FEFFDD" style="stroke:#181818;stroke-width:0.5;"/><text fill="#000000" font-family="sans-serif" font-size="13" lengthAdjust="spacing" textLength="172" x="12" y="192.5669">MwSt 18% ist anzuwenden</text></g><g id="elem_NB"><path d="M346,175.5 L346,200.6328 A0,0 0 0 0 346,200.6328 L659,200.6328 A0,0 0 0 0 659,200.6328 L659,185.5 L649,175.5 L502.924,175.5 L477.167,104.352 L494.924,175.5 L346,175.5 A0,0 0 0 0 346,175.5 " fill="#FEFFDD" style="stroke:#181818;stroke-width:0.5;"/><path d="M649,175.5 L649,185.5 L659,185.5 L649,175.5 " fill="#FEFFDD" style="stroke:#181818;stroke-width:0.5;"/><text fill="#000000" font-family="sans-serif" font-size="13" lengthAdjust="spacing" textLength="292" x="352" y="192.5669">Vorsteuerabzugsberechtigung hei&#223;t 0% MwSt</text></g><g id="elem_NI"><path d="M694,175.5 L694,200.6328 A0,0 0 0 0 694,200.6328 L901,200.6328 A0,0 0 0 0 901,200.6328 L901,185.5 L891,175.5 L806.021,175.5 L833.06,96.008 L798.021,175.5 L694,175.5 A0,0 0 0 0 694,175.5 " fill="#FEFFDD" style="stroke:#181818;stroke-width:0.5;"/><path d="M891,175.5 L891,185.5 L901,185.5 L891,175.5 " fill="#FEFFDD" style="stroke:#181818;stroke-width:0.5;"/><text fill="#000000" font-family="sans-serif" font-size="13" lengthAdjust="spacing" textLength="186" x="700" y="192.5669">In der Buchf&#252;rhung hinterlegt</text></g><g id="elem_NE"><path d="M1075.5,175.5 L1075.5,200.6328 A0,0 0 0 0 1075.5,200.6328 L1311.5,200.6328 A0,0 0 0 0 1311.5,200.6328 L1311.5,185.5 L1301.5,175.5 L1192.98,175.5 L1157.94,96.008 L1184.98,175.5 L1075.5,175.5 A0,0 0 0 0 1075.5,175.5 " fill="#FEFFDD" style="stroke:#181818;stroke-width:0.5;"/><path d="M1301.5,175.5 L1301.5,185.5 L1311.5,185.5 L1301.5,175.5 " fill="#FEFFDD" style="stroke:#181818;stroke-width:0.5;"/><text fill="#000000" font-family="sans-serif" font-size="13" lengthAdjust="spacing" textLength="215" x="1081.5" y="192.5669">An externen Empf&#228;nger versandt</text></g><!--link Privatkunde to Kunde--><g id="link_Privatkunde_Kunde"><path codeLine="32" d="M181.16,96.008 C203.45,118.214 217.7439,132.4526 236.5959,151.2331 " fill="none" id="Privatkunde-to-Kunde" style="stroke:#181818;stroke-width:1.0;"/><polygon fill="none" points="249.348,163.9368,240.8305,146.9824,232.3613,155.4838,249.348,163.9368" style="stroke:#181818;stroke-width:1.0;"/></g><!--link Businesskunde to Kunde--><g id="link_Businesskunde_Kunde"><path codeLine="33" d="M393.099,104.167 C363.417,124.5545 344.9693,137.2252 320.8993,153.7576 " fill="none" id="Businesskunde-to-Kunde" style="stroke:#181818;stroke-width:1.0;"/><polygon fill="none" points="306.062,163.9485,324.2963,158.7033,317.5023,148.8118,306.062,163.9485" style="stroke:#181818;stroke-width:1.0;"/></g><!--link InterneVerechnung to Rechnung--><g id="link_InterneVerechnung_Rechnung"><path codeLine="35" d="M890.885,96.008 C914.707,118.214 930.4431,132.8831 950.5911,151.6636 " fill="none" id="InterneVerechnung-to-Rechnung" style="stroke:#181818;stroke-width:1.0;"/><polygon fill="none" points="963.758,163.9368,954.6822,147.2746,946.5,156.0525,963.758,163.9368" style="stroke:#181818;stroke-width:1.0;"/></g><!--link ExternVersandt to Rechnung--><g id="link_ExternVersandt_Rechnung"><path codeLine="36" d="M1095.88,96.008 C1069.67,118.214 1051.6119,133.5186 1029.4519,152.2991 " fill="none" id="ExternVersandt-to-Rechnung" style="stroke:#181818;stroke-width:1.0;"/><polygon fill="none" points="1015.72,163.9368,1033.3311,156.8764,1025.5726,147.7218,1015.72,163.9368" style="stroke:#181818;stroke-width:1.0;"/></g><!--SRC=[ZL7BJiCm4BpxArQLUcm5DzG3KYFb425G1LBlJh99B98DygD11Rw52v_1BJ-6xLWXIJbmzEpCxCvOa4PPy0pXpb2EBAkvKd2GuiJriqFWZG4GRn1seBGKLDetDbpKly17a4L62KAb_Yq44EhOIgNHeDodPrEg52LcbHQbjhIqRMla17O34-EbZvP0nig7hOaR41wzqE5-CqyrYjgz9jiwbCusRqrQutXs_EeCh5vnohLN3mbsePHB8QDM8wpkkoSDrpTh6qC3fxFfqF9f1Lp1mo6Gne1y7j3TLg7eFpLShS5P3Reew1A27AKjDQkA_bjMdkzRgB4Ct2HmzmJeKo11tBmK_HULLdiAcGPopDZqOxTRT-FypnmMiSj67PwmHL4EN7XkDk-teRIvyMJmXxsVZj-wM3CR_W00]--></g></svg>