<svg version="1.1" xmlns="http://www.w3.org/2000/svg" viewBox="0 0 813.3920824748972 695.4164382400571">
  <!-- svg-source:excalidraw -->

  <defs>
    <style class="style-fonts">
      @font-face {
        font-family: "Virgil";
        src: url("https://excalidraw.com/Virgil.woff2");
      }
      @font-face {
        font-family: "Cascadia";
        src: url("https://excalidraw.com/Cascadia.woff2");
      }
    </style>

  </defs>
  <g stroke-linecap="round" transform="translate(10 583.5313115285086) rotate(0 396.6250390910231 50.94256335577427)"><path d="M25.47 0 L773.75 0.4 L778.92 1.59 L783.3 3.58 L786.88 6.37 L789.67 9.95 L791.66 14.33 L793.25 25.47 L792.85 82.38 L791.66 87.56 L789.67 91.94 L786.88 95.52 L783.3 98.3 L778.92 100.29 L767.78 101.89 L19.5 101.49 L14.33 100.29 L9.95 98.3 L6.37 95.52 L3.58 91.94 L1.59 87.56 L0 76.41 L0 25.47 L1.59 14.33 L3.58 9.95 L6.37 6.37 L9.95 3.58 L14.33 1.59 L25.47 0" stroke="none" stroke-width="0" fill="#ffec99"></path><path d="M25.47 0 M25.47 0 C198.93 0, 372.4 0, 767.78 0 M767.78 0 C784.76 0, 793.25 8.49, 793.25 25.47 M793.25 25.47 C793.25 40.55, 793.25 55.62, 793.25 76.41 M793.25 76.41 C793.25 93.39, 784.76 101.89, 767.78 101.89 M767.78 101.89 C522.46 101.89, 277.14 101.89, 25.47 101.89 M25.47 101.89 C8.49 101.89, 0 93.39, 0 76.41 M0 76.41 C0 58.04, 0 39.66, 0 25.47 M0 25.47 C0 8.49, 8.49 0, 25.47 0" stroke="#1e1e1e" stroke-width="2.5" fill="none" stroke-dasharray="8 10"></path></g><g transform="translate(290.5750360392652 612.8738748842828) rotate(0 116.05000305175781 21.600000000000023)"><text x="116.05000305175781" y="0" font-family="Cascadia, Segoe UI Emoji" font-size="36px" fill="#1e1e1e" text-anchor="middle" style="white-space: pre;" direction="ltr" dominant-baseline="text-before-edge">Persistence</text></g><g stroke-linecap="round" transform="translate(11.211800600811216 10) rotate(0 396.090140937043 50.94256335577427)"><path d="M25.47 0 L772.68 0.4 L777.85 1.59 L782.23 3.58 L785.81 6.37 L788.6 9.95 L790.59 14.33 L792.18 25.47 L791.78 82.38 L790.59 87.56 L788.6 91.94 L785.81 95.52 L782.23 98.3 L777.85 100.29 L766.71 101.89 L19.5 101.49 L14.33 100.29 L9.95 98.3 L6.37 95.52 L3.58 91.94 L1.59 87.56 L0 76.41 L0 25.47 L1.59 14.33 L3.58 9.95 L6.37 6.37 L9.95 3.58 L14.33 1.59 L25.47 0" stroke="none" stroke-width="0" fill="#b2f2bb"></path><path d="M25.47 0 M25.47 0 C297.82 0, 570.16 0, 766.71 0 M766.71 0 C783.69 0, 792.18 8.49, 792.18 25.47 M792.18 25.47 C792.18 38.1, 792.18 50.73, 792.18 76.41 M792.18 76.41 C792.18 93.39, 783.69 101.89, 766.71 101.89 M766.71 101.89 C495.1 101.89, 223.48 101.89, 25.47 101.89 M25.47 101.89 C8.49 101.89, 0 93.39, 0 76.41 M0 76.41 C0 65.35, 0 54.29, 0 25.47 M0 25.47 C0 8.49, 8.49 0, 25.47 0" stroke="#1e1e1e" stroke-width="2.5" fill="none" stroke-dasharray="8 10"></path></g><g transform="translate(259.6019445896121 39.342563355774274) rotate(0 147.6999969482422 21.599999999999994)"><text x="147.6999969482422" y="0" font-family="Cascadia, Segoe UI Emoji" font-size="36px" fill="#1e1e1e" text-anchor="middle" style="white-space: pre;" direction="ltr" dominant-baseline="text-before-edge">User Interface</text></g><g stroke-linecap="round" transform="translate(251.1643380818026 251.65284949632078) rotate(90.26462327091666 176.71666998816977 50.94256335577427)"><path d="M25.47 0 L327.96 0 L339.11 1.59 L343.48 3.58 L347.07 6.37 L349.85 9.95 L351.84 14.33 L353.04 19.5 L353.43 76.41 L351.84 87.56 L349.85 91.94 L347.07 95.52 L343.48 98.3 L339.11 100.29 L327.96 101.89 L25.47 101.89 L14.33 100.29 L9.95 98.3 L6.37 95.52 L3.58 91.94 L1.59 87.56 L0.4 82.38 L0.4 19.5 L1.59 14.33 L3.58 9.95 L6.37 6.37 L9.95 3.58 L14.33 1.59 L25.47 0" stroke="none" stroke-width="0" fill="#ffc9c9"></path><path d="M25.47 0 M25.47 0 C99.43 0, 173.4 0, 327.96 0 M327.96 0 C344.94 0, 353.43 8.49, 353.43 25.47 M353.43 25.47 C353.43 36.43, 353.43 47.38, 353.43 76.41 M353.43 76.41 C353.43 93.39, 344.94 101.89, 327.96 101.89 M327.96 101.89 C209.76 101.89, 91.56 101.89, 25.47 101.89 M25.47 101.89 C8.49 101.89, 0 93.39, 0 76.41 M0 76.41 C0 63.53, 0 50.64, 0 25.47 M0 25.47 C0 8.49, 8.49 0, 25.47 0" stroke="#1e1e1e" stroke-width="2.5" fill="none" stroke-dasharray="8 10"></path></g><g transform="translate(343.4810065440935 280.9954128520951) rotate(90.26462327091666 84.4000015258789 21.599999999999994)"><text x="84.4000015258789" y="0" font-family="Cascadia, Segoe UI Emoji" font-size="36px" fill="#1e1e1e" text-anchor="middle" style="white-space: pre;" direction="ltr" dominant-baseline="text-before-edge">Ordering</text></g><g stroke-linecap="round" transform="translate(413.88452495962645 251.10291938495376) rotate(90.26462327091666 175.64441464642005 50.94256335577427)"><path d="M25.47 0 L325.82 0 L336.96 1.59 L341.34 3.58 L344.92 6.37 L347.71 9.95 L349.7 14.33 L350.89 19.5 L351.29 76.41 L349.7 87.56 L347.71 91.94 L344.92 95.52 L341.34 98.3 L336.96 100.29 L325.82 101.89 L25.47 101.89 L14.33 100.29 L9.95 98.3 L6.37 95.52 L3.58 91.94 L1.59 87.56 L0.4 82.38 L0.4 19.5 L1.59 14.33 L3.58 9.95 L6.37 6.37 L9.95 3.58 L14.33 1.59 L25.47 0" stroke="none" stroke-width="0" fill="#ffc9c9"></path><path d="M25.47 0 M25.47 0 C128.81 0, 232.16 0, 325.82 0 M325.82 0 C342.8 0, 351.29 8.49, 351.29 25.47 M351.29 25.47 C351.29 38.41, 351.29 51.34, 351.29 76.41 M351.29 76.41 C351.29 93.39, 342.8 101.89, 325.82 101.89 M325.82 101.89 C226.76 101.89, 127.7 101.89, 25.47 101.89 M25.47 101.89 C8.49 101.89, 0 93.39, 0 76.41 M0 76.41 C0 61.69, 0 46.97, 0 25.47 M0 25.47 C0 8.49, 8.49 0, 25.47 0" stroke="#1e1e1e" stroke-width="2.5" fill="none" stroke-dasharray="8 10"></path></g><g transform="translate(557.8789399875162 280.44548274072804) rotate(90.26462327091666 31.649999618530273 21.599999999999994)"><text x="31.649999618530273" y="0" font-family="Cascadia, Segoe UI Emoji" font-size="36px" fill="#1e1e1e" text-anchor="middle" style="white-space: pre;" direction="ltr" dominant-baseline="text-before-edge">...</text></g><g stroke-linecap="round" transform="translate(570.7133694420864 252.28249128239426) rotate(90.26462327091666 174.04714863031666 50.94256335577427)"><path d="M25.47 0 L322.62 0 L333.77 1.59 L338.14 3.58 L341.73 6.37 L344.51 9.95 L346.5 14.33 L347.7 19.5 L348.09 76.41 L346.5 87.56 L344.51 91.94 L341.73 95.52 L338.14 98.3 L333.77 100.29 L322.62 101.89 L25.47 101.89 L14.33 100.29 L9.95 98.3 L6.37 95.52 L3.58 91.94 L1.59 87.56 L0.4 82.38 L0.4 19.5 L1.59 14.33 L3.58 9.95 L6.37 6.37 L9.95 3.58 L14.33 1.59 L25.47 0" stroke="none" stroke-width="0" fill="#ffc9c9"></path><path d="M25.47 0 M25.47 0 C110.98 0, 196.48 0, 322.62 0 M322.62 0 C339.6 0, 348.09 8.49, 348.09 25.47 M348.09 25.47 C348.09 44.19, 348.09 62.91, 348.09 76.41 M348.09 76.41 C348.09 93.39, 339.6 101.89, 322.62 101.89 M322.62 101.89 C251.86 101.89, 181.09 101.89, 25.47 101.89 M25.47 101.89 C8.49 101.89, 0 93.39, 0 76.41 M0 76.41 C0 57.36, 0 38.3, 0 25.47 M0 25.47 C0 8.49, 8.49 0, 25.47 0" stroke="#1e1e1e" stroke-width="2.5" fill="none" stroke-dasharray="8 10"></path></g><g transform="translate(649.810521124161 281.62505463816854) rotate(90.26462327091666 94.94999694824219 21.599999999999994)"><text x="94.94999694824219" y="0" font-family="Cascadia, Segoe UI Emoji" font-size="36px" fill="#1e1e1e" text-anchor="middle" style="white-space: pre;" direction="ltr" dominant-baseline="text-before-edge">Warehouse</text></g><g stroke-linecap="round" transform="translate(119.6414291982909 251.5302800936848) rotate(90.26462327091666 177.25650332455155 50.94256335577427)"><path d="M25.47 0 L329.04 0 L340.19 1.59 L344.56 3.58 L348.15 6.37 L350.93 9.95 L352.92 14.33 L354.12 19.5 L354.51 76.41 L352.92 87.56 L350.93 91.94 L348.15 95.52 L344.56 98.3 L340.19 100.29 L335.01 101.49 L329.04 101.89 L25.47 101.89 L14.33 100.29 L9.95 98.3 L6.37 95.52 L3.58 91.94 L1.59 87.56 L0.4 82.38 L0.4 19.5 L1.59 14.33 L3.58 9.95 L6.37 6.37 L9.95 3.58 L14.33 1.59 L25.47 0" stroke="none" stroke-width="0" fill="#ffc9c9"></path><path d="M25.47 0 M25.47 0 C98.91 0, 172.35 0, 329.04 0 M329.04 0 C346.02 0, 354.51 8.49, 354.51 25.47 M354.51 25.47 C354.51 42.69, 354.51 59.9, 354.51 76.41 M354.51 76.41 C354.51 93.39, 346.02 101.89, 329.04 101.89 M329.04 101.89 C263.37 101.89, 197.7 101.89, 25.47 101.89 M25.47 101.89 C8.49 101.89, 0 93.39, 0 76.41 M0 76.41 C0 60.8, 0 45.19, 0 25.47 M0 25.47 C0 8.49, 8.49 0, 25.47 0" stroke="#1e1e1e" stroke-width="2.5" fill="none" stroke-dasharray="8 10"></path></g><g transform="translate(223.04793404872134 280.8728434494591) rotate(90.26462327091666 73.84999847412115 21.599999999999994)"><text x="73.8499984741211" y="0" font-family="Cascadia, Segoe UI Emoji" font-size="36px" fill="#1e1e1e" text-anchor="middle" style="white-space: pre;" direction="ltr" dominant-baseline="text-before-edge">Billing</text></g><g stroke-linecap="round" transform="translate(-12.628885223598331 250.9778795649947) rotate(90.26462327091666 176.1817775391305 50.94256335577427)"><path d="M25.47 0 L326.89 0 L338.04 1.59 L342.41 3.58 L346 6.37 L348.78 9.95 L350.77 14.33 L351.97 19.5 L352.36 76.41 L350.77 87.56 L348.78 91.94 L346 95.52 L342.41 98.3 L338.04 100.29 L332.86 101.49 L326.89 101.89 L25.47 101.89 L14.33 100.29 L9.95 98.3 L6.37 95.52 L3.58 91.94 L1.59 87.56 L0.4 82.38 L0.4 19.5 L1.59 14.33 L3.58 9.95 L6.37 6.37 L9.95 3.58 L14.33 1.59 L25.47 0" stroke="none" stroke-width="0" fill="#ffc9c9"></path><path d="M25.47 0 M25.47 0 C99.41 0, 173.34 0, 326.89 0 M326.89 0 C343.87 0, 352.36 8.49, 352.36 25.47 M352.36 25.47 C352.36 36.86, 352.36 48.24, 352.36 76.41 M352.36 76.41 C352.36 93.39, 343.87 101.89, 326.89 101.89 M326.89 101.89 C233.26 101.89, 139.63 101.89, 25.47 101.89 M25.47 101.89 C8.49 101.89, 0 93.39, 0 76.41 M0 76.41 C0 63.83, 0 51.24, 0 25.47 M0 25.47 C0 8.49, 8.49 0, 25.47 0" stroke="#1e1e1e" stroke-width="2.5" fill="none" stroke-dasharray="8 10"></path></g><g transform="translate(131.9028926970019 280.320442920769) rotate(90.26462327091666 31.649999618530273 21.599999999999994)"><text x="31.649999618530273" y="0" font-family="Cascadia, Segoe UI Emoji" font-size="36px" fill="#1e1e1e" text-anchor="middle" style="white-space: pre;" direction="ltr" dominant-baseline="text-before-edge">CRM</text></g><g stroke-linecap="round" transform="translate(13.42830028111041 124.7552658965306) rotate(0 40.28016637433308 222.72562583454788)"><path d="M20.14 0 L60.42 0 L69.23 1.26 L75.53 5.04 L79.3 11.33 L80.25 15.42 L80.56 425.31 L79.3 434.12 L75.53 440.42 L72.69 442.62 L65.14 445.14 L20.14 445.45 L11.33 444.19 L5.04 440.42 L1.26 434.12 L0.31 430.03 L0 20.14 L1.26 11.33 L5.04 5.04 L11.33 1.26 L20.14 0" stroke="none" stroke-width="0" fill="#eebefa"></path><path d="M20.14 0 M20.14 0 C32.59 0, 45.03 0, 60.42 0 M60.42 0 C73.85 0, 80.56 6.71, 80.56 20.14 M80.56 20.14 C80.56 123.47, 80.56 226.8, 80.56 425.31 M80.56 425.31 C80.56 438.74, 73.85 445.45, 60.42 445.45 M60.42 445.45 C47.01 445.45, 33.59 445.45, 20.14 445.45 M20.14 445.45 C6.71 445.45, 0 438.74, 0 425.31 M0 425.31 C0 337.53, 0 249.74, 0 20.14 M0 20.14 C0 6.71, 6.71 0, 20.14 0" stroke="#1e1e1e" stroke-width="2.5" fill="none" stroke-dasharray="8 10"></path></g><g stroke-linecap="round" transform="translate(367.59752557846844 135.74942262130938) rotate(90.09900897373001 40.280166374333135 395.11204603431986)"><path d="M20.14 0 L60.42 0 L69.23 1.26 L72.69 2.83 L77.73 7.87 L79.3 11.33 L80.56 20.14 L80.56 770.08 L79.3 778.9 L75.53 785.19 L69.23 788.97 L60.42 790.22 L20.14 790.22 L11.33 788.97 L7.87 787.39 L2.83 782.36 L1.26 778.9 L0 770.08 L0 20.14 L1.26 11.33 L5.04 5.04 L11.33 1.26 L20.14 0" stroke="none" stroke-width="0" fill="#eebefa"></path><path d="M20.14 0 M20.14 0 C35.88 0, 51.62 0, 60.42 0 M60.42 0 C73.85 0, 80.56 6.71, 80.56 20.14 M80.56 20.14 C80.56 308.1, 80.56 596.06, 80.56 770.08 M80.56 770.08 C80.56 783.51, 73.85 790.22, 60.42 790.22 M60.42 790.22 C50.42 790.22, 40.41 790.22, 20.14 790.22 M20.14 790.22 C6.71 790.22, 0 783.51, 0 770.08 M0 770.08 C0 604.04, 0 438, 0 20.14 M0 20.14 C0 6.71, 6.71 0, 20.14 0" stroke="#1e1e1e" stroke-width="2.5" fill="none" stroke-dasharray="8 10"></path></g><g stroke-linecap="round" transform="translate(17.14736791435041 486.2129826437247) rotate(0 37.94090845596759 13.8109739920896)"><path d="M0 0 L75.88 0 L75.88 27.62 L0 27.62" stroke="none" stroke-width="0" fill="#eebefa"></path><path d="M0 0 C23.32 0, 46.63 0, 75.88 0 M75.88 0 C75.88 7.47, 75.88 14.94, 75.88 27.62 M75.88 27.62 C53.93 27.62, 31.97 27.62, 0 27.62 M0 27.62 C0 17.99, 0 8.36, 0 0" stroke="transparent" stroke-width="2.5" fill="none" stroke-dasharray="8 10"></path></g><g transform="translate(287.28163602032544 511.140167766599) rotate(0 126.5999984741211 21.600000000000023)"><text x="0" y="0" font-family="Cascadia, Segoe UI Emoji" font-size="36px" fill="#1e1e1e" text-anchor="start" style="white-space: pre;" direction="ltr" dominant-baseline="text-before-edge">Domain Model</text></g></svg>
