<svg version="1.1" xmlns="http://www.w3.org/2000/svg" viewBox="0 0 708.6572874639403 680.6816999422754" width="2125.9718623918207" height="2042.0450998268261">
  <!-- svg-source:excalidraw -->
  
  <defs>
    <style class="style-fonts">
      @font-face {
        font-family: "Virgil";
        src: url("https://excalidraw.com/Virgil.woff2");
      }
      @font-face {
        font-family: "Cascadia";
        src: url("https://excalidraw.com/Cascadia.woff2");
      }
    </style>
    
  </defs>
  <g stroke-linecap="round" transform="translate(12.611258490292357 588.8226037915398) rotate(0 49.74558116265541 40.92954807536779)"><path d="M20.46 0 L83.82 0.32 L87.98 1.28 L94.37 5.12 L98.21 11.51 L99.49 20.46 L99.17 66.19 L98.21 70.35 L94.37 76.74 L87.98 80.58 L79.03 81.86 L15.67 81.54 L7.99 78.98 L5.12 76.74 L1.28 70.35 L0.32 66.19 L0.32 15.67 L2.88 7.99 L5.12 5.12 L11.51 1.28 L20.46 0" stroke="none" stroke-width="0" fill="#ffec99"></path><path d="M20.46 0 M20.46 0 C38.47 0, 56.47 0, 79.03 0 M79.03 0 C92.67 0, 99.49 6.82, 99.49 20.46 M99.49 20.46 C99.49 34.82, 99.49 49.18, 99.49 61.39 M99.49 61.39 C99.49 75.04, 92.67 81.86, 79.03 81.86 M79.03 81.86 C61.95 81.86, 44.87 81.86, 20.46 81.86 M20.46 81.86 C6.82 81.86, 0 75.04, 0 61.39 M0 61.39 C0 48.99, 0 36.59, 0 20.46 M0 20.46 C0 6.82, 6.82 0, 20.46 0" stroke="#1e1e1e" stroke-width="2.5" fill="none" stroke-dasharray="8 10"></path></g><g transform="translate(30.70684003441761 608.1521518669075) rotate(0 31.649999618530273 21.600000000000023)"><text x="31.649999618530273" y="0" font-family="Cascadia, Segoe UI Emoji" font-size="36px" fill="#1e1e1e" text-anchor="middle" style="white-space: pre;" direction="ltr" dominant-baseline="text-before-edge">Per</text></g><g stroke-linecap="round" transform="translate(144.1978726095141 587.3791577567896) rotate(0 49.74558116265541 40.92954807536779)"><path d="M20.46 0 L83.82 0.32 L87.98 1.28 L94.37 5.12 L98.21 11.51 L99.49 20.46 L99.17 66.19 L98.21 70.35 L94.37 76.74 L87.98 80.58 L79.03 81.86 L15.67 81.54 L7.99 78.98 L5.12 76.74 L1.28 70.35 L0.32 66.19 L0.32 15.67 L2.88 7.99 L5.12 5.12 L11.51 1.28 L20.46 0" stroke="none" stroke-width="0" fill="#ffec99"></path><path d="M20.46 0 M20.46 0 C34.39 0, 48.32 0, 79.03 0 M79.03 0 C92.67 0, 99.49 6.82, 99.49 20.46 M99.49 20.46 C99.49 35.77, 99.49 51.08, 99.49 61.39 M99.49 61.39 C99.49 75.04, 92.67 81.86, 79.03 81.86 M79.03 81.86 C61.51 81.86, 44 81.86, 20.46 81.86 M20.46 81.86 C6.82 81.86, 0 75.04, 0 61.39 M0 61.39 C0 50.35, 0 39.3, 0 20.46 M0 20.46 C0 6.82, 6.82 0, 20.46 0" stroke="#1e1e1e" stroke-width="2.5" fill="none" stroke-dasharray="8 10"></path></g><g transform="translate(162.29345415363935 606.7087058321573) rotate(0 31.649999618530273 21.600000000000023)"><text x="31.649999618530273" y="0" font-family="Cascadia, Segoe UI Emoji" font-size="36px" fill="#1e1e1e" text-anchor="middle" style="white-space: pre;" direction="ltr" dominant-baseline="text-before-edge">Per</text></g><g stroke-linecap="round" transform="translate(278.6453482374234 584.5052809676955) rotate(0 49.74558116265541 40.92954807536779)"><path d="M20.46 0 L83.82 0.32 L87.98 1.28 L94.37 5.12 L98.21 11.51 L99.49 20.46 L99.17 66.19 L98.21 70.35 L94.37 76.74 L87.98 80.58 L79.03 81.86 L15.67 81.54 L7.99 78.98 L5.12 76.74 L1.28 70.35 L0.32 66.19 L0.32 15.67 L2.88 7.99 L5.12 5.12 L11.51 1.28 L20.46 0" stroke="none" stroke-width="0" fill="#ffec99"></path><path d="M20.46 0 M20.46 0 C32.73 0, 44.99 0, 79.03 0 M79.03 0 C92.67 0, 99.49 6.82, 99.49 20.46 M99.49 20.46 C99.49 32.69, 99.49 44.92, 99.49 61.39 M99.49 61.39 C99.49 75.04, 92.67 81.86, 79.03 81.86 M79.03 81.86 C62.49 81.86, 45.95 81.86, 20.46 81.86 M20.46 81.86 C6.82 81.86, 0 75.04, 0 61.39 M0 61.39 C0 49.17, 0 36.94, 0 20.46 M0 20.46 C0 6.82, 6.82 0, 20.46 0" stroke="#1e1e1e" stroke-width="2.5" fill="none" stroke-dasharray="8 10"></path></g><g transform="translate(296.74092978154863 603.8348290430632) rotate(0 31.649999618530273 21.600000000000023)"><text x="31.649999618530273" y="0" font-family="Cascadia, Segoe UI Emoji" font-size="36px" fill="#1e1e1e" text-anchor="middle" style="white-space: pre;" direction="ltr" dominant-baseline="text-before-edge">Per</text></g><g stroke-linecap="round" transform="translate(441.70143895220826 584.4922656872891) rotate(0 49.74558116265541 40.92954807536779)"><path d="M20.46 0 L83.82 0.32 L87.98 1.28 L94.37 5.12 L98.21 11.51 L99.49 20.46 L99.17 66.19 L98.21 70.35 L94.37 76.74 L87.98 80.58 L79.03 81.86 L15.67 81.54 L7.99 78.98 L5.12 76.74 L1.28 70.35 L0.32 66.19 L0.32 15.67 L2.88 7.99 L5.12 5.12 L11.51 1.28 L20.46 0" stroke="none" stroke-width="0" fill="#ffec99"></path><path d="M20.46 0 M20.46 0 C36.82 0, 53.18 0, 79.03 0 M79.03 0 C92.67 0, 99.49 6.82, 99.49 20.46 M99.49 20.46 C99.49 34.97, 99.49 49.47, 99.49 61.39 M99.49 61.39 C99.49 75.04, 92.67 81.86, 79.03 81.86 M79.03 81.86 C65.76 81.86, 52.49 81.86, 20.46 81.86 M20.46 81.86 C6.82 81.86, 0 75.04, 0 61.39 M0 61.39 C0 50.79, 0 40.19, 0 20.46 M0 20.46 C0 6.82, 6.82 0, 20.46 0" stroke="#1e1e1e" stroke-width="2.5" fill="none" stroke-dasharray="8 10"></path></g><g transform="translate(459.7970204963335 603.8218137626568) rotate(0 31.649999618530273 21.600000000000023)"><text x="31.649999618530273" y="0" font-family="Cascadia, Segoe UI Emoji" font-size="36px" fill="#1e1e1e" text-anchor="middle" style="white-space: pre;" direction="ltr" dominant-baseline="text-before-edge">Per</text></g><g stroke-linecap="round" transform="translate(599.0358066496183 581.618388898195) rotate(0 49.74558116265541 40.92954807536779)"><path d="M20.46 0 L83.82 0.32 L87.98 1.28 L94.37 5.12 L98.21 11.51 L99.49 20.46 L99.17 66.19 L98.21 70.35 L94.37 76.74 L87.98 80.58 L79.03 81.86 L15.67 81.54 L7.99 78.98 L5.12 76.74 L1.28 70.35 L0.32 66.19 L0.32 15.67 L2.88 7.99 L5.12 5.12 L11.51 1.28 L20.46 0" stroke="none" stroke-width="0" fill="#ffec99"></path><path d="M20.46 0 M20.46 0 C35.41 0, 50.35 0, 79.03 0 M79.03 0 C92.67 0, 99.49 6.82, 99.49 20.46 M99.49 20.46 C99.49 28.82, 99.49 37.18, 99.49 61.39 M99.49 61.39 C99.49 75.04, 92.67 81.86, 79.03 81.86 M79.03 81.86 C57.98 81.86, 36.93 81.86, 20.46 81.86 M20.46 81.86 C6.82 81.86, 0 75.04, 0 61.39 M0 61.39 C0 51.32, 0 41.24, 0 20.46 M0 20.46 C0 6.82, 6.82 0, 20.46 0" stroke="#1e1e1e" stroke-width="2.5" fill="none" stroke-dasharray="8 10"></path></g><g transform="translate(617.1313881937435 600.9479369735627) rotate(0 31.649999618530273 21.600000000000023)"><text x="31.649999618530273" y="0" font-family="Cascadia, Segoe UI Emoji" font-size="36px" fill="#1e1e1e" text-anchor="middle" style="white-space: pre;" direction="ltr" dominant-baseline="text-before-edge">Per</text></g><g stroke-linecap="round" transform="translate(12.392628336759458 10) rotate(0 50.64111376301895 51.65777873294614)"><path d="M25.32 0 L81.9 0.4 L87.04 1.58 L91.39 3.56 L94.95 6.33 L97.72 9.89 L99.7 14.24 L101.28 25.32 L100.89 83.93 L99.7 89.07 L97.72 93.42 L94.95 96.99 L91.39 99.75 L87.04 101.73 L75.96 103.32 L19.39 102.92 L14.24 101.73 L9.89 99.75 L6.33 96.99 L3.56 93.42 L1.58 89.07 L0 78 L0 25.32 L1.58 14.24 L3.56 9.89 L6.33 6.33 L9.89 3.56 L14.24 1.58 L19.39 0.4 L25.32 0" stroke="none" stroke-width="0" fill="#b2f2bb"></path><path d="M25.32 0 M25.32 0 C39.84 0, 54.36 0, 75.96 0 M75.96 0 C92.84 0, 101.28 8.44, 101.28 25.32 M101.28 25.32 C101.28 45.13, 101.28 64.95, 101.28 78 M101.28 78 C101.28 94.88, 92.84 103.32, 75.96 103.32 M75.96 103.32 C56.95 103.32, 37.94 103.32, 25.32 103.32 M25.32 103.32 C8.44 103.32, 0 94.88, 0 78 M0 78 C0 63.47, 0 48.94, 0 25.32 M0 25.32 C0 8.44, 8.44 0, 25.32 0" stroke="#1e1e1e" stroke-width="2.5" fill="none" stroke-dasharray="8 10"></path></g><g transform="translate(41.933741718308625 40.05777873294613) rotate(0 21.100000381469727 21.599999999999994)"><text x="21.100000381469727" y="0" font-family="Cascadia, Segoe UI Emoji" font-size="36px" fill="#1e1e1e" text-anchor="middle" style="white-space: pre;" direction="ltr" dominant-baseline="text-before-edge">UI</text></g><g stroke-linecap="round" transform="translate(145.40967321032497 12.847846228281071) rotate(0 50.64111376301895 51.65777873294614)"><path d="M25.32 0 L81.9 0.4 L87.04 1.58 L91.39 3.56 L94.95 6.33 L97.72 9.89 L99.7 14.24 L101.28 25.32 L100.89 83.93 L99.7 89.07 L97.72 93.42 L94.95 96.99 L91.39 99.75 L87.04 101.73 L75.96 103.32 L19.39 102.92 L14.24 101.73 L9.89 99.75 L6.33 96.99 L3.56 93.42 L1.58 89.07 L0 78 L0 25.32 L1.58 14.24 L3.56 9.89 L6.33 6.33 L9.89 3.56 L14.24 1.58 L19.39 0.4 L25.32 0" stroke="none" stroke-width="0" fill="#b2f2bb"></path><path d="M25.32 0 M25.32 0 C45.5 0, 65.67 0, 75.96 0 M75.96 0 C92.84 0, 101.28 8.44, 101.28 25.32 M101.28 25.32 C101.28 39.83, 101.28 54.33, 101.28 78 M101.28 78 C101.28 94.88, 92.84 103.32, 75.96 103.32 M75.96 103.32 C63.04 103.32, 50.12 103.32, 25.32 103.32 M25.32 103.32 C8.44 103.32, 0 94.88, 0 78 M0 78 C0 64.86, 0 51.73, 0 25.32 M0 25.32 C0 8.44, 8.44 0, 25.32 0" stroke="#1e1e1e" stroke-width="2.5" fill="none" stroke-dasharray="8 10"></path></g><g transform="translate(174.95078659187413 42.905624961227204) rotate(0 21.100000381469727 21.599999999999994)"><text x="21.100000381469727" y="0" font-family="Cascadia, Segoe UI Emoji" font-size="36px" fill="#1e1e1e" text-anchor="middle" style="white-space: pre;" direction="ltr" dominant-baseline="text-before-edge">UI</text></g><g stroke-linecap="round" transform="translate(274.13542582085915 12.834830947874536) rotate(0 50.64111376301901 51.65777873294614)"><path d="M25.32 0 L81.9 0.4 L87.04 1.58 L91.39 3.56 L94.95 6.33 L97.72 9.89 L99.7 14.24 L101.28 25.32 L100.89 83.93 L99.7 89.07 L97.72 93.42 L94.95 96.99 L91.39 99.75 L87.04 101.73 L75.96 103.32 L19.39 102.92 L14.24 101.73 L9.89 99.75 L6.33 96.99 L3.56 93.42 L1.58 89.07 L0 78 L0 25.32 L1.58 14.24 L3.56 9.89 L6.33 6.33 L9.89 3.56 L14.24 1.58 L19.39 0.4 L25.32 0" stroke="none" stroke-width="0" fill="#b2f2bb"></path><path d="M25.32 0 M25.32 0 C37.66 0, 50 0, 75.96 0 M75.96 0 C92.84 0, 101.28 8.44, 101.28 25.32 M101.28 25.32 C101.28 42.54, 101.28 59.76, 101.28 78 M101.28 78 C101.28 94.88, 92.84 103.32, 75.96 103.32 M75.96 103.32 C60.54 103.32, 45.12 103.32, 25.32 103.32 M25.32 103.32 C8.44 103.32, 0 94.88, 0 78 M0 78 C0 60.39, 0 42.78, 0 25.32 M0 25.32 C0 8.44, 8.44 0, 25.32 0" stroke="#1e1e1e" stroke-width="2.5" fill="none" stroke-dasharray="8 10"></path></g><g transform="translate(303.6765392024083 42.89260968082067) rotate(0 21.100000381469727 21.599999999999994)"><text x="21.100000381469727" y="0" font-family="Cascadia, Segoe UI Emoji" font-size="36px" fill="#1e1e1e" text-anchor="middle" style="white-space: pre;" direction="ltr" dominant-baseline="text-before-edge">UI</text></g><g stroke-linecap="round" transform="translate(438.62194728998793 14.252246421811833) rotate(0 50.64111376301901 51.65777873294614)"><path d="M25.32 0 L81.9 0.4 L87.04 1.58 L91.39 3.56 L94.95 6.33 L97.72 9.89 L99.7 14.24 L101.28 25.32 L100.89 83.93 L99.7 89.07 L97.72 93.42 L94.95 96.99 L91.39 99.75 L87.04 101.73 L75.96 103.32 L19.39 102.92 L14.24 101.73 L9.89 99.75 L6.33 96.99 L3.56 93.42 L1.58 89.07 L0 78 L0 25.32 L1.58 14.24 L3.56 9.89 L6.33 6.33 L9.89 3.56 L14.24 1.58 L19.39 0.4 L25.32 0" stroke="none" stroke-width="0" fill="#b2f2bb"></path><path d="M25.32 0 M25.32 0 C39.49 0, 53.66 0, 75.96 0 M75.96 0 C92.84 0, 101.28 8.44, 101.28 25.32 M101.28 25.32 C101.28 39.6, 101.28 53.89, 101.28 78 M101.28 78 C101.28 94.88, 92.84 103.32, 75.96 103.32 M75.96 103.32 C59.04 103.32, 42.12 103.32, 25.32 103.32 M25.32 103.32 C8.44 103.32, 0 94.88, 0 78 M0 78 C0 58.39, 0 38.79, 0 25.32 M0 25.32 C0 8.44, 8.44 0, 25.32 0" stroke="#1e1e1e" stroke-width="2.5" fill="none" stroke-dasharray="8 10"></path></g><g transform="translate(468.1630606715371 44.310025154757966) rotate(0 21.100000381469727 21.599999999999994)"><text x="21.100000381469727" y="0" font-family="Cascadia, Segoe UI Emoji" font-size="36px" fill="#1e1e1e" text-anchor="middle" style="white-space: pre;" direction="ltr" dominant-baseline="text-before-edge">UI</text></g><g stroke-linecap="round" transform="translate(590.2345919700226 15.66966189574913) rotate(0 50.64111376301901 51.65777873294614)"><path d="M25.32 0 L81.9 0.4 L87.04 1.58 L91.39 3.56 L94.95 6.33 L97.72 9.89 L99.7 14.24 L101.28 25.32 L100.89 83.93 L99.7 89.07 L97.72 93.42 L94.95 96.99 L91.39 99.75 L87.04 101.73 L75.96 103.32 L19.39 102.92 L14.24 101.73 L9.89 99.75 L6.33 96.99 L3.56 93.42 L1.58 89.07 L0 78 L0 25.32 L1.58 14.24 L3.56 9.89 L6.33 6.33 L9.89 3.56 L14.24 1.58 L19.39 0.4 L25.32 0" stroke="none" stroke-width="0" fill="#b2f2bb"></path><path d="M25.32 0 M25.32 0 C42.7 0, 60.08 0, 75.96 0 M75.96 0 C92.84 0, 101.28 8.44, 101.28 25.32 M101.28 25.32 C101.28 44.23, 101.28 63.15, 101.28 78 M101.28 78 C101.28 94.88, 92.84 103.32, 75.96 103.32 M75.96 103.32 C60.05 103.32, 44.14 103.32, 25.32 103.32 M25.32 103.32 C8.44 103.32, 0 94.88, 0 78 M0 78 C0 60.21, 0 42.43, 0 25.32 M0 25.32 C0 8.44, 8.44 0, 25.32 0" stroke="#1e1e1e" stroke-width="2.5" fill="none" stroke-dasharray="8 10"></path></g><g transform="translate(619.7757053515718 45.72744062869526) rotate(0 21.100000381469727 21.599999999999994)"><text x="21.100000381469727" y="0" font-family="Cascadia, Segoe UI Emoji" font-size="36px" fill="#1e1e1e" text-anchor="middle" style="white-space: pre;" direction="ltr" dominant-baseline="text-before-edge">UI</text></g><g stroke-linecap="round" transform="translate(149.36716678540552 255.5267262854147) rotate(90.26462327091666 176.71666998816977 50.94256335577427)"><path d="M25.47 0 L327.96 0 L339.11 1.59 L343.48 3.58 L347.07 6.37 L349.85 9.95 L351.84 14.33 L353.04 19.5 L353.43 76.41 L351.84 87.56 L349.85 91.94 L347.07 95.52 L343.48 98.3 L339.11 100.29 L327.96 101.89 L25.47 101.89 L14.33 100.29 L9.95 98.3 L6.37 95.52 L3.58 91.94 L1.59 87.56 L0.4 82.38 L0.4 19.5 L1.59 14.33 L3.58 9.95 L6.37 6.37 L9.95 3.58 L14.33 1.59 L25.47 0" stroke="none" stroke-width="0" fill="#ffc9c9"></path><path d="M25.47 0 M25.47 0 C99.43 0, 173.4 0, 327.96 0 M327.96 0 C344.94 0, 353.43 8.49, 353.43 25.47 M353.43 25.47 C353.43 36.43, 353.43 47.38, 353.43 76.41 M353.43 76.41 C353.43 93.39, 344.94 101.89, 327.96 101.89 M327.96 101.89 C209.76 101.89, 91.56 101.89, 25.47 101.89 M25.47 101.89 C8.49 101.89, 0 93.39, 0 76.41 M0 76.41 C0 63.53, 0 50.64, 0 25.47 M0 25.47 C0 8.49, 8.49 0, 25.47 0" stroke="#1e1e1e" stroke-width="2.5" fill="none" stroke-dasharray="8 10"></path></g><g transform="translate(241.68383524769638 284.86928964118897) rotate(90.26462327091666 84.4000015258789 21.599999999999994)"><text x="84.4000015258789" y="0" font-family="Cascadia, Segoe UI Emoji" font-size="36px" fill="#1e1e1e" text-anchor="middle" style="white-space: pre;" direction="ltr" dominant-baseline="text-before-edge">Ordering</text></g><g stroke-linecap="round" transform="translate(312.08735366322935 256.4072269283914) rotate(90.26462327091666 175.64441464642005 50.94256335577427)"><path d="M25.47 0 L325.82 0 L336.96 1.59 L341.34 3.58 L344.92 6.37 L347.71 9.95 L349.7 14.33 L350.89 19.5 L351.29 76.41 L349.7 87.56 L347.71 91.94 L344.92 95.52 L341.34 98.3 L336.96 100.29 L325.82 101.89 L25.47 101.89 L14.33 100.29 L9.95 98.3 L6.37 95.52 L3.58 91.94 L1.59 87.56 L0.4 82.38 L0.4 19.5 L1.59 14.33 L3.58 9.95 L6.37 6.37 L9.95 3.58 L14.33 1.59 L25.47 0" stroke="none" stroke-width="0" fill="#ffc9c9"></path><path d="M25.47 0 M25.47 0 C128.81 0, 232.16 0, 325.82 0 M325.82 0 C342.8 0, 351.29 8.49, 351.29 25.47 M351.29 25.47 C351.29 38.41, 351.29 51.34, 351.29 76.41 M351.29 76.41 C351.29 93.39, 342.8 101.89, 325.82 101.89 M325.82 101.89 C226.76 101.89, 127.7 101.89, 25.47 101.89 M25.47 101.89 C8.49 101.89, 0 93.39, 0 76.41 M0 76.41 C0 61.69, 0 46.97, 0 25.47 M0 25.47 C0 8.49, 8.49 0, 25.47 0" stroke="#1e1e1e" stroke-width="2.5" fill="none" stroke-dasharray="8 10"></path></g><g transform="translate(456.0817686911191 285.7497902841658) rotate(90.26462327091666 31.649999618530273 21.599999999999994)"><text x="31.649999618530273" y="0" font-family="Cascadia, Segoe UI Emoji" font-size="36px" fill="#1e1e1e" text-anchor="middle" style="white-space: pre;" direction="ltr" dominant-baseline="text-before-edge">...</text></g><g stroke-linecap="round" transform="translate(468.91619814568935 256.15636807148815) rotate(90.26462327091666 174.04714863031666 50.94256335577427)"><path d="M25.47 0 L322.62 0 L333.77 1.59 L338.14 3.58 L341.73 6.37 L344.51 9.95 L346.5 14.33 L347.7 19.5 L348.09 76.41 L346.5 87.56 L344.51 91.94 L341.73 95.52 L338.14 98.3 L333.77 100.29 L322.62 101.89 L25.47 101.89 L14.33 100.29 L9.95 98.3 L6.37 95.52 L3.58 91.94 L1.59 87.56 L0.4 82.38 L0.4 19.5 L1.59 14.33 L3.58 9.95 L6.37 6.37 L9.95 3.58 L14.33 1.59 L25.47 0" stroke="none" stroke-width="0" fill="#ffc9c9"></path><path d="M25.47 0 M25.47 0 C110.98 0, 196.48 0, 322.62 0 M322.62 0 C339.6 0, 348.09 8.49, 348.09 25.47 M348.09 25.47 C348.09 44.19, 348.09 62.91, 348.09 76.41 M348.09 76.41 C348.09 93.39, 339.6 101.89, 322.62 101.89 M322.62 101.89 C251.86 101.89, 181.09 101.89, 25.47 101.89 M25.47 101.89 C8.49 101.89, 0 93.39, 0 76.41 M0 76.41 C0 57.36, 0 38.3, 0 25.47 M0 25.47 C0 8.49, 8.49 0, 25.47 0" stroke="#1e1e1e" stroke-width="2.5" fill="none" stroke-dasharray="8 10"></path></g><g transform="translate(548.0133498277639 285.4989314272625) rotate(90.26462327091666 94.94999694824219 21.599999999999994)"><text x="94.94999694824219" y="0" font-family="Cascadia, Segoe UI Emoji" font-size="36px" fill="#1e1e1e" text-anchor="middle" style="white-space: pre;" direction="ltr" dominant-baseline="text-before-edge">Warehouse</text></g><g stroke-linecap="round" transform="translate(17.844257901893798 255.40415688277872) rotate(90.26462327091666 177.25650332455155 50.94256335577427)"><path d="M25.47 0 L329.04 0 L340.19 1.59 L344.56 3.58 L348.15 6.37 L350.93 9.95 L352.92 14.33 L354.12 19.5 L354.51 76.41 L352.92 87.56 L350.93 91.94 L348.15 95.52 L344.56 98.3 L340.19 100.29 L335.01 101.49 L329.04 101.89 L25.47 101.89 L14.33 100.29 L9.95 98.3 L6.37 95.52 L3.58 91.94 L1.59 87.56 L0.4 82.38 L0.4 19.5 L1.59 14.33 L3.58 9.95 L6.37 6.37 L9.95 3.58 L14.33 1.59 L25.47 0" stroke="none" stroke-width="0" fill="#ffc9c9"></path><path d="M25.47 0 M25.47 0 C98.91 0, 172.35 0, 329.04 0 M329.04 0 C346.02 0, 354.51 8.49, 354.51 25.47 M354.51 25.47 C354.51 42.69, 354.51 59.9, 354.51 76.41 M354.51 76.41 C354.51 93.39, 346.02 101.89, 329.04 101.89 M329.04 101.89 C263.37 101.89, 197.7 101.89, 25.47 101.89 M25.47 101.89 C8.49 101.89, 0 93.39, 0 76.41 M0 76.41 C0 60.8, 0 45.19, 0 25.47 M0 25.47 C0 8.49, 8.49 0, 25.47 0" stroke="#1e1e1e" stroke-width="2.5" fill="none" stroke-dasharray="8 10"></path></g><g transform="translate(121.25076275232425 284.74672023855305) rotate(90.26462327091666 73.84999847412115 21.599999999999994)"><text x="73.8499984741211" y="0" font-family="Cascadia, Segoe UI Emoji" font-size="36px" fill="#1e1e1e" text-anchor="middle" style="white-space: pre;" direction="ltr" dominant-baseline="text-before-edge">Billing</text></g><g stroke-linecap="round" transform="translate(10.780412553817996 497.91259099603576) rotate(359.91482661007626 50.696300164551076 40.21540775946113)"><path d="M20.11 0 L81.28 0 L90.08 1.26 L96.37 5.03 L100.14 11.31 L101.39 20.11 L101.08 65.04 L100.14 69.12 L96.37 75.4 L90.08 79.17 L81.28 80.43 L20.11 80.43 L11.31 79.17 L5.03 75.4 L1.26 69.12 L0.31 65.04 L0.31 15.39 L1.26 11.31 L5.03 5.03 L11.31 1.26 L20.11 0" stroke="none" stroke-width="0" fill="#d0bfff"></path><path d="M20.11 0 M20.11 0 C44.05 0, 67.99 0, 81.28 0 M81.28 0 C94.69 0, 101.39 6.7, 101.39 20.11 M101.39 20.11 C101.39 34.57, 101.39 49.03, 101.39 60.32 M101.39 60.32 C101.39 73.73, 94.69 80.43, 81.28 80.43 M81.28 80.43 C61.41 80.43, 41.54 80.43, 20.11 80.43 M20.11 80.43 C6.7 80.43, 0 73.73, 0 60.32 M0 60.32 C0 49.05, 0 37.77, 0 20.11 M0 20.11 C0 6.7, 6.7 0, 20.11 0" stroke="#1e1e1e" stroke-width="2.5" fill="none" stroke-dasharray="8 10"></path></g><g transform="translate(40.376712336899345 516.5279987554969) rotate(359.91482661007626 21.100000381469727 21.600000000000023)"><text x="21.100000381469727" y="0" font-family="Cascadia, Segoe UI Emoji" font-size="36px" fill="#1e1e1e" text-anchor="middle" style="white-space: pre;" direction="ltr" dominant-baseline="text-before-edge">DM</text></g><g stroke-linecap="round" transform="translate(142.36702667303973 496.46914496128556) rotate(359.91482661007626 50.696300164551076 40.21540775946113)"><path d="M20.11 0 L81.28 0 L90.08 1.26 L96.37 5.03 L100.14 11.31 L101.39 20.11 L101.08 65.04 L100.14 69.12 L96.37 75.4 L90.08 79.17 L81.28 80.43 L20.11 80.43 L11.31 79.17 L5.03 75.4 L1.26 69.12 L0.31 65.04 L0.31 15.39 L1.26 11.31 L5.03 5.03 L11.31 1.26 L20.11 0" stroke="none" stroke-width="0" fill="#d0bfff"></path><path d="M20.11 0 M20.11 0 C33.27 0, 46.44 0, 81.28 0 M81.28 0 C94.69 0, 101.39 6.7, 101.39 20.11 M101.39 20.11 C101.39 35.25, 101.39 50.4, 101.39 60.32 M101.39 60.32 C101.39 73.73, 94.69 80.43, 81.28 80.43 M81.28 80.43 C67.41 80.43, 53.54 80.43, 20.11 80.43 M20.11 80.43 C6.7 80.43, 0 73.73, 0 60.32 M0 60.32 C0 50.66, 0 41, 0 20.11 M0 20.11 C0 6.7, 6.7 0, 20.11 0" stroke="#1e1e1e" stroke-width="2.5" fill="none" stroke-dasharray="8 10"></path></g><g transform="translate(171.96332645612108 515.0845527207467) rotate(359.91482661007626 21.100000381469727 21.600000000000023)"><text x="21.100000381469727" y="0" font-family="Cascadia, Segoe UI Emoji" font-size="36px" fill="#1e1e1e" text-anchor="middle" style="white-space: pre;" direction="ltr" dominant-baseline="text-before-edge">DM</text></g><g stroke-linecap="round" transform="translate(276.814502300949 493.5952681721915) rotate(359.91482661007626 50.696300164551076 40.21540775946113)"><path d="M20.11 0 L81.28 0 L90.08 1.26 L96.37 5.03 L100.14 11.31 L101.39 20.11 L101.08 65.04 L100.14 69.12 L96.37 75.4 L90.08 79.17 L81.28 80.43 L20.11 80.43 L11.31 79.17 L5.03 75.4 L1.26 69.12 L0.31 65.04 L0.31 15.39 L1.26 11.31 L5.03 5.03 L11.31 1.26 L20.11 0" stroke="none" stroke-width="0" fill="#d0bfff"></path><path d="M20.11 0 M20.11 0 C34.63 0, 49.15 0, 81.28 0 M81.28 0 C94.69 0, 101.39 6.7, 101.39 20.11 M101.39 20.11 C101.39 28.49, 101.39 36.88, 101.39 60.32 M101.39 60.32 C101.39 73.73, 94.69 80.43, 81.28 80.43 M81.28 80.43 C62.88 80.43, 44.47 80.43, 20.11 80.43 M20.11 80.43 C6.7 80.43, 0 73.73, 0 60.32 M0 60.32 C0 50.15, 0 39.98, 0 20.11 M0 20.11 C0 6.7, 6.7 0, 20.11 0" stroke="#1e1e1e" stroke-width="2.5" fill="none" stroke-dasharray="8 10"></path></g><g transform="translate(306.41080208403037 512.2106759316526) rotate(359.91482661007626 21.100000381469727 21.600000000000023)"><text x="21.100000381469727" y="0" font-family="Cascadia, Segoe UI Emoji" font-size="36px" fill="#1e1e1e" text-anchor="middle" style="white-space: pre;" direction="ltr" dominant-baseline="text-before-edge">DM</text></g><g stroke-linecap="round" transform="translate(439.8705930157339 493.58225289178506) rotate(359.91482661007626 50.696300164551076 40.21540775946113)"><path d="M20.11 0 L81.28 0 L90.08 1.26 L96.37 5.03 L100.14 11.31 L101.39 20.11 L101.08 65.04 L100.14 69.12 L96.37 75.4 L90.08 79.17 L81.28 80.43 L20.11 80.43 L11.31 79.17 L5.03 75.4 L1.26 69.12 L0.31 65.04 L0.31 15.39 L1.26 11.31 L5.03 5.03 L11.31 1.26 L20.11 0" stroke="none" stroke-width="0" fill="#d0bfff"></path><path d="M20.11 0 M20.11 0 C43.18 0, 66.25 0, 81.28 0 M81.28 0 C94.69 0, 101.39 6.7, 101.39 20.11 M101.39 20.11 C101.39 31.85, 101.39 43.59, 101.39 60.32 M101.39 60.32 C101.39 73.73, 94.69 80.43, 81.28 80.43 M81.28 80.43 C61.66 80.43, 42.04 80.43, 20.11 80.43 M20.11 80.43 C6.7 80.43, 0 73.73, 0 60.32 M0 60.32 C0 50.53, 0 40.73, 0 20.11 M0 20.11 C0 6.7, 6.7 0, 20.11 0" stroke="#1e1e1e" stroke-width="2.5" fill="none" stroke-dasharray="8 10"></path></g><g transform="translate(469.46689279881525 512.1976606512462) rotate(359.91482661007626 21.100000381469727 21.600000000000023)"><text x="21.100000381469727" y="0" font-family="Cascadia, Segoe UI Emoji" font-size="36px" fill="#1e1e1e" text-anchor="middle" style="white-space: pre;" direction="ltr" dominant-baseline="text-before-edge">DM</text></g><g stroke-linecap="round" transform="translate(597.2049607131439 490.708376102691) rotate(359.91482661007626 50.696300164551076 40.21540775946113)"><path d="M20.11 0 L81.28 0 L90.08 1.26 L96.37 5.03 L100.14 11.31 L101.39 20.11 L101.08 65.04 L100.14 69.12 L96.37 75.4 L90.08 79.17 L81.28 80.43 L20.11 80.43 L11.31 79.17 L5.03 75.4 L1.26 69.12 L0.31 65.04 L0.31 15.39 L1.26 11.31 L5.03 5.03 L11.31 1.26 L20.11 0" stroke="none" stroke-width="0" fill="#d0bfff"></path><path d="M20.11 0 M20.11 0 C40.31 0, 60.51 0, 81.28 0 M81.28 0 C94.69 0, 101.39 6.7, 101.39 20.11 M101.39 20.11 C101.39 32.39, 101.39 44.68, 101.39 60.32 M101.39 60.32 C101.39 73.73, 94.69 80.43, 81.28 80.43 M81.28 80.43 C60.18 80.43, 39.08 80.43, 20.11 80.43 M20.11 80.43 C6.7 80.43, 0 73.73, 0 60.32 M0 60.32 C0 48.02, 0 35.72, 0 20.11 M0 20.11 C0 6.7, 6.7 0, 20.11 0" stroke="#1e1e1e" stroke-width="2.5" fill="none" stroke-dasharray="8 10"></path></g><g transform="translate(626.8012604962253 509.32378386215214) rotate(359.91482661007626 21.100000381469727 21.600000000000023)"><text x="21.100000381469727" y="0" font-family="Cascadia, Segoe UI Emoji" font-size="36px" fill="#1e1e1e" text-anchor="middle" style="white-space: pre;" direction="ltr" dominant-baseline="text-before-edge">DM</text></g><g stroke-linecap="round" transform="translate(-114.42605651999543 254.85175635408862) rotate(90.26462327091666 176.1817775391305 50.94256335577427)"><path d="M25.47 0 L326.89 0 L338.04 1.59 L342.41 3.58 L346 6.37 L348.78 9.95 L350.77 14.33 L351.97 19.5 L352.36 76.41 L350.77 87.56 L348.78 91.94 L346 95.52 L342.41 98.3 L338.04 100.29 L332.86 101.49 L326.89 101.89 L25.47 101.89 L14.33 100.29 L9.95 98.3 L6.37 95.52 L3.58 91.94 L1.59 87.56 L0.4 82.38 L0.4 19.5 L1.59 14.33 L3.58 9.95 L6.37 6.37 L9.95 3.58 L14.33 1.59 L25.47 0" stroke="none" stroke-width="0" fill="#ffc9c9"></path><path d="M25.47 0 M25.47 0 C99.41 0, 173.34 0, 326.89 0 M326.89 0 C343.87 0, 352.36 8.49, 352.36 25.47 M352.36 25.47 C352.36 36.86, 352.36 48.24, 352.36 76.41 M352.36 76.41 C352.36 93.39, 343.87 101.89, 326.89 101.89 M326.89 101.89 C233.26 101.89, 139.63 101.89, 25.47 101.89 M25.47 101.89 C8.49 101.89, 0 93.39, 0 76.41 M0 76.41 C0 63.83, 0 51.24, 0 25.47 M0 25.47 C0 8.49, 8.49 0, 25.47 0" stroke="#1e1e1e" stroke-width="2.5" fill="none" stroke-dasharray="8 10"></path></g><g transform="translate(30.105721400604807 284.19431970986295) rotate(90.26462327091666 31.649999618530273 21.599999999999994)"><text x="31.649999618530273" y="0" font-family="Cascadia, Segoe UI Emoji" font-size="36px" fill="#1e1e1e" text-anchor="middle" style="white-space: pre;" direction="ltr" dominant-baseline="text-before-edge">CRM</text></g></svg>