<svg version="1.1" xmlns="http://www.w3.org/2000/svg" viewBox="0 0 984.0973131473049 254.2102592830835" width="2952.291939441915" height="762.6307778492505">
  <!-- svg-source:excalidraw -->
  
  <defs>
    <style class="style-fonts">
      @font-face {
        font-family: "Virgil";
        src: url("https://excalidraw.com/Virgil.woff2");
      }
      @font-face {
        font-family: "Cascadia";
        src: url("https://excalidraw.com/Cascadia.woff2");
      }
      @font-face {
        font-family: "Assistant";
        src: url("https://excalidraw.com/Assistant-Regular.woff2");
      }
    </style>
    
  </defs>
  <g stroke-linecap="round" transform="translate(10 28.930430754343774) rotate(0 180.23427504731706 40.767276498797884)"><path d="M20.38 0 C86.03 0, 151.67 0, 340.08 0 C353.67 0, 360.47 6.79, 360.47 20.38 C360.47 28.75, 360.47 37.11, 360.47 61.15 C360.47 74.74, 353.67 81.53, 340.08 81.53 C267.9 81.53, 195.71 81.53, 20.38 81.53 C6.79 81.53, 0 74.74, 0 61.15 C0 48.74, 0 36.32, 0 20.38 C0 6.79, 6.79 0, 20.38 0" stroke="none" stroke-width="0" fill="#ffec99"></path><path d="M20.38 0 C84.75 0, 149.12 0, 340.08 0 M20.38 0 C133.83 0, 247.28 0, 340.08 0 M340.08 0 C353.67 0, 360.47 6.79, 360.47 20.38 M340.08 0 C353.67 0, 360.47 6.79, 360.47 20.38 M360.47 20.38 C360.47 34.71, 360.47 49.04, 360.47 61.15 M360.47 20.38 C360.47 29.16, 360.47 37.93, 360.47 61.15 M360.47 61.15 C360.47 74.74, 353.67 81.53, 340.08 81.53 M360.47 61.15 C360.47 74.74, 353.67 81.53, 340.08 81.53 M340.08 81.53 C235.68 81.53, 131.28 81.53, 20.38 81.53 M340.08 81.53 C228.87 81.53, 117.66 81.53, 20.38 81.53 M20.38 81.53 C6.79 81.53, 0 74.74, 0 61.15 M20.38 81.53 C6.79 81.53, 0 74.74, 0 61.15 M0 61.15 C0 47.43, 0 33.7, 0 20.38 M0 61.15 C0 45.4, 0 29.64, 0 20.38 M0 20.38 C0 6.79, 6.79 0, 20.38 0 M0 20.38 C0 6.79, 6.79 0, 20.38 0" stroke="#f08c00" stroke-width="2" fill="none"></path></g><g transform="translate(93.4009391708521 52.19770725314166) rotate(0 96.83333587646484 17.5)"><text x="96.83333587646484" y="24.528" font-family="Virgil, Segoe UI Emoji" font-size="28px" fill="#1e1e1e" text-anchor="middle" style="white-space: pre;" direction="ltr" dominant-baseline="alphabetic">AwsomeService</text></g><g stroke-linecap="round" transform="translate(613.6287630526708 30.34784622828107) rotate(0 180.23427504731706 40.767276498797884)"><path d="M20.38 0 C134.13 0, 247.87 0, 340.08 0 C353.67 0, 360.47 6.79, 360.47 20.38 C360.47 33.76, 360.47 47.14, 360.47 61.15 C360.47 74.74, 353.67 81.53, 340.08 81.53 C217.86 81.53, 95.63 81.53, 20.38 81.53 C6.79 81.53, 0 74.74, 0 61.15 C0 44.87, 0 28.58, 0 20.38 C0 6.79, 6.79 0, 20.38 0" stroke="none" stroke-width="0" fill="#ffec99"></path><path d="M20.38 0 C137.73 0, 255.08 0, 340.08 0 M20.38 0 C104.02 0, 187.65 0, 340.08 0 M340.08 0 C353.67 0, 360.47 6.79, 360.47 20.38 M340.08 0 C353.67 0, 360.47 6.79, 360.47 20.38 M360.47 20.38 C360.47 31.96, 360.47 43.53, 360.47 61.15 M360.47 20.38 C360.47 29.42, 360.47 38.45, 360.47 61.15 M360.47 61.15 C360.47 74.74, 353.67 81.53, 340.08 81.53 M360.47 61.15 C360.47 74.74, 353.67 81.53, 340.08 81.53 M340.08 81.53 C268.92 81.53, 197.75 81.53, 20.38 81.53 M340.08 81.53 C241.25 81.53, 142.42 81.53, 20.38 81.53 M20.38 81.53 C6.79 81.53, 0 74.74, 0 61.15 M20.38 81.53 C6.79 81.53, 0 74.74, 0 61.15 M0 61.15 C0 52.08, 0 43, 0 20.38 M0 61.15 C0 48.66, 0 36.17, 0 20.38 M0 20.38 C0 6.79, 6.79 0, 20.38 0 M0 20.38 C0 6.79, 6.79 0, 20.38 0" stroke="#f08c00" stroke-width="2" fill="none"></path></g><g transform="translate(707.9463739764526 53.615122727078955) rotate(0 85.91666412353516 17.5)"><text x="85.91666412353516" y="24.528" font-family="Virgil, Segoe UI Emoji" font-size="28px" fill="#1e1e1e" text-anchor="middle" style="white-space: pre;" direction="ltr" dominant-baseline="alphabetic">OtherService</text></g><g mask="url(#mask-Ms7g0yFE446yOi8tqfS8N)" stroke-linecap="round"><g transform="translate(371.89898084897777 77.5650764020325) rotate(0 115.86489110184664 -25.03253820101625)"><path d="M0 0 C16.45 -8.34, 60.08 -48.63, 98.7 -50.07 C137.32 -51.5, 209.56 -15.5, 231.73 -8.58 M0 0 C16.45 -8.34, 60.08 -48.63, 98.7 -50.07 C137.32 -51.5, 209.56 -15.5, 231.73 -8.58" stroke="#1e1e1e" stroke-width="2" fill="none"></path></g><g transform="translate(371.89898084897777 77.5650764020325) rotate(0 115.86489110184664 -25.03253820101625)"><path d="M206.74 -9.23 C216.01 -8.99, 225.29 -8.75, 231.73 -8.58 M206.74 -9.23 C213.67 -9.05, 220.59 -8.87, 231.73 -8.58" stroke="#1e1e1e" stroke-width="2" fill="none"></path></g><g transform="translate(371.89898084897777 77.5650764020325) rotate(0 115.86489110184664 -25.03253820101625)"><path d="M213 -25.14 C219.95 -19, 226.9 -12.85, 231.73 -8.58 M213 -25.14 C218.19 -20.55, 223.38 -15.96, 231.73 -8.58" stroke="#1e1e1e" stroke-width="2" fill="none"></path></g></g><mask id="mask-Ms7g0yFE446yOi8tqfS8N"><rect x="0" y="0" fill="#fff" width="703.628763052671" height="227.630152804065"></rect><rect x="439.79870366163846" y="10" fill="#000" width="61.599998474121094" height="35" opacity="1"></rect></mask><g transform="translate(439.79870366163846 10) rotate(0 47.965168289185954 42.5118002432634)"><text x="30.799999237060547" y="24.528" font-family="Virgil, Segoe UI Emoji" font-size="28px" fill="#1e1e1e" text-anchor="middle" style="white-space: pre;" direction="ltr" dominant-baseline="alphabetic">uses</text></g><g transform="translate(788.1543303630192 40.37387678909408) rotate(10.361186158456174 85.71666717529297 17.5)"><text x="0" y="24.528" font-family="Virgil, Segoe UI Emoji" font-size="28px" fill="#e03131" text-anchor="start" style="white-space: pre;" direction="ltr" dominant-baseline="alphabetic">@Depricated</text></g><g stroke-linecap="round" transform="translate(612.2113475787332 162.67570628548773) rotate(0 180.23427504731706 40.767276498797884)"><path d="M20.38 0 C134.33 0, 248.28 0, 340.08 0 C353.67 0, 360.47 6.79, 360.47 20.38 C360.47 28.9, 360.47 37.42, 360.47 61.15 C360.47 74.74, 353.67 81.53, 340.08 81.53 C220.79 81.53, 101.5 81.53, 20.38 81.53 C6.79 81.53, 0 74.74, 0 61.15 C0 44.88, 0 28.62, 0 20.38 C0 6.79, 6.79 0, 20.38 0" stroke="none" stroke-width="0" fill="#ffec99"></path><path d="M20.38 0 C105.7 0, 191.02 0, 340.08 0 M20.38 0 C85.49 0, 150.6 0, 340.08 0 M340.08 0 C353.67 0, 360.47 6.79, 360.47 20.38 M340.08 0 C353.67 0, 360.47 6.79, 360.47 20.38 M360.47 20.38 C360.47 31.27, 360.47 42.16, 360.47 61.15 M360.47 20.38 C360.47 29.43, 360.47 38.49, 360.47 61.15 M360.47 61.15 C360.47 74.74, 353.67 81.53, 340.08 81.53 M360.47 61.15 C360.47 74.74, 353.67 81.53, 340.08 81.53 M340.08 81.53 C239.26 81.53, 138.43 81.53, 20.38 81.53 M340.08 81.53 C250.49 81.53, 160.9 81.53, 20.38 81.53 M20.38 81.53 C6.79 81.53, 0 74.74, 0 61.15 M20.38 81.53 C6.79 81.53, 0 74.74, 0 61.15 M0 61.15 C0 49.99, 0 38.82, 0 20.38 M0 61.15 C0 45, 0 28.85, 0 20.38 M0 20.38 C0 6.79, 6.79 0, 20.38 0 M0 20.38 C0 6.79, 6.79 0, 20.38 0" stroke="#f08c00" stroke-width="2" fill="none"></path></g><g transform="translate(719.995625677808 185.94298278428562) rotate(0 72.44999694824219 17.5)"><text x="72.44999694824219" y="24.528" font-family="Virgil, Segoe UI Emoji" font-size="28px" fill="#1e1e1e" text-anchor="middle" style="white-space: pre;" direction="ltr" dominant-baseline="alphabetic">NewService</text></g><g mask="url(#mask-ODgipZSVyNHREDJdu-z4Q)" stroke-linecap="round"><g transform="translate(373.32941160332166 81.85636866506383) rotate(0 111.5735988388152 68.66067620850171)"><path d="M0 0 C16.69 18.36, 62.94 87.26, 100.13 110.14 C137.32 133.03, 202.64 132.79, 223.15 137.32 M0 0 C16.69 18.36, 62.94 87.26, 100.13 110.14 C137.32 133.03, 202.64 132.79, 223.15 137.32" stroke="#1e1e1e" stroke-width="2" fill="none"></path></g><g transform="translate(373.32941160332166 81.85636866506383) rotate(0 111.5735988388152 68.66067620850171)"><path d="M198.78 142.92 C204.37 141.63, 209.97 140.35, 223.15 137.32 M198.78 142.92 C206.47 141.15, 214.15 139.39, 223.15 137.32" stroke="#1e1e1e" stroke-width="2" fill="none"></path></g><g transform="translate(373.32941160332166 81.85636866506383) rotate(0 111.5735988388152 68.66067620850171)"><path d="M200.88 125.95 C206 128.56, 211.11 131.17, 223.15 137.32 M200.88 125.95 C207.91 129.53, 214.93 133.12, 223.15 137.32" stroke="#1e1e1e" stroke-width="2" fill="none"></path></g></g><mask id="mask-ODgipZSVyNHREDJdu-z4Q"><rect x="0" y="0" fill="#fff" width="696.4766092809521" height="319.17772108206725"></rect><rect x="424.59289952091194" y="156.9995367495353" fill="#000" width="97.73332977294922" height="70" opacity="1"></rect></mask><g transform="translate(424.59289952091194 156.9995367495353) rotate(0 60.31011092122492 -6.482491875969771)"><text x="48.86666488647461" y="24.528" font-family="Virgil, Segoe UI Emoji" font-size="28px" fill="#1e1e1e" text-anchor="middle" style="white-space: pre;" direction="ltr" dominant-baseline="alphabetic">should </text><text x="48.86666488647461" y="59.528" font-family="Virgil, Segoe UI Emoji" font-size="28px" fill="#1e1e1e" text-anchor="middle" style="white-space: pre;" direction="ltr" dominant-baseline="alphabetic">use</text></g></svg>